<svg width="118" height="40" viewBox="0 0 118 40" fill="none" xmlns="http://www.w3.org/2000/svg">
<g clip-path="url(#clip0_288_430)">
<path d="M22.5568 8.56225C22.414 8.57925 21.8598 8.66992 21.4858 8.73678C20.1066 8.98158 18.3023 9.29665 16.3915 9.62532C13.7236 10.0854 9.91677 10.7518 9.84991 10.7711C9.81364 10.7813 9.82837 10.8085 9.88391 10.8368C9.91337 10.8516 10.6591 11.1723 11.5408 11.5497C16.0005 13.4571 20.5463 15.4008 21.4972 15.8076C22.1919 16.1046 22.5806 16.2655 22.6135 16.2689C22.6747 16.2757 22.686 16.2712 23.2368 16.0343C23.4522 15.9414 24.9595 15.3067 26.5858 14.6233C28.2133 13.9399 30.8404 12.8349 32.4259 12.1662L35.3068 10.9524V10.9105V10.8697L35.2252 10.8459C35.1085 10.8119 35.0496 10.7994 34.3435 10.6725C33.9978 10.6102 33.2963 10.4832 32.7852 10.3903C32.274 10.2974 31.4297 10.1444 30.9095 10.0503C30.3893 9.95625 29.7308 9.83612 29.4475 9.78398C29.1642 9.73185 28.542 9.61965 28.0648 9.53578C27.5877 9.45078 26.8363 9.31365 26.3932 9.22865C25.3743 9.03372 24.5583 8.88412 23.4748 8.69032C23.2289 8.64725 22.9739 8.60192 22.9082 8.58945C22.7812 8.56678 22.6214 8.55318 22.5568 8.56225ZM22.9297 9.26265C23.0079 9.27738 23.1926 9.31025 23.3388 9.33632C24.0143 9.45418 24.8926 9.61625 25.822 9.79418C26.1008 9.84745 26.6334 9.94492 27.0063 10.0106C27.3803 10.0764 27.8608 10.1625 28.0762 10.2033C28.2915 10.243 29.3852 10.4424 30.5072 10.6453C31.6292 10.8482 32.5857 11.025 32.6322 11.0374C32.6786 11.051 32.7761 11.0873 32.8475 11.1179C32.9189 11.1496 33.0028 11.1848 33.0322 11.1984C33.073 11.2154 33.0832 11.2233 33.0708 11.2312C33.0413 11.2471 29.1574 12.887 27.6115 13.5353C25.6599 14.3547 23.4952 15.2659 23.1348 15.42L22.7212 15.598H22.6305H22.5398L22.0015 15.3679C21.7057 15.241 20.9554 14.9202 20.3355 14.655C17.3163 13.3653 12.5212 11.3117 12.4339 11.2709L12.3342 11.2256V11.1145C12.3342 11.0522 12.3387 11.0023 12.3444 11.0023C12.35 11.0023 12.5121 10.974 12.7036 10.94C13.5491 10.787 16.2952 10.3076 17.4568 10.1081C18.6956 9.89618 19.6997 9.72052 21.3272 9.43378C21.7329 9.36238 22.1636 9.28872 22.2848 9.26945C22.4061 9.25132 22.5217 9.23318 22.5398 9.22978C22.6044 9.21958 22.788 9.23545 22.9297 9.26265Z" fill="#C1C4D0"/>
<path d="M22.2736 9.54028C22.1274 9.56408 21.8747 9.60715 21.7126 9.63661C20.8875 9.78281 19.1955 10.0786 17.8763 10.3064C15.5711 10.7042 12.9111 11.17 12.9043 11.1768C12.9021 11.1791 12.9961 11.2221 13.1129 11.272C13.76 11.5485 21.5041 14.8601 22.022 15.0823L22.6363 15.3452L22.8663 15.2432C23.0703 15.1514 24.3691 14.604 27.5436 13.2712C29.7298 12.3532 31.9341 11.4216 31.9421 11.4137C31.95 11.4046 31.9239 11.1847 31.9126 11.1745C31.9103 11.1711 31.0694 11.017 30.046 10.8323C29.0215 10.6464 27.9879 10.4583 27.7476 10.4141C27.5073 10.371 27.0767 10.2928 26.7899 10.2429C26.5032 10.1919 25.9343 10.0877 25.5263 10.0095C24.8791 9.88595 24.3555 9.78961 23.0318 9.55161C22.8142 9.51195 22.6907 9.49495 22.6295 9.49608C22.5796 9.49721 22.4198 9.51648 22.2736 9.54028ZM23.3106 10.4186C23.6415 10.4787 24.1651 10.575 24.4757 10.6339C24.7862 10.6929 25.2112 10.7722 25.422 10.8096C25.6317 10.8459 26.3672 10.9796 27.0563 11.1043C27.7453 11.2289 28.4797 11.3627 28.6883 11.4001C28.8968 11.4386 29.0963 11.4783 29.1303 11.4885C29.2005 11.5111 29.4929 11.6392 29.4929 11.6483C29.4918 11.6539 28.7778 11.9554 25.3733 13.3879C24.1708 13.8945 23.0737 14.3558 22.9366 14.4147C22.6057 14.5564 22.6476 14.5575 22.2679 14.3943C22.1059 14.3252 20.6348 13.6962 18.9994 12.9969C17.364 12.2977 16.004 11.7151 15.9768 11.7015L15.9269 11.6777V11.5723C15.9269 11.4726 15.9281 11.4669 15.953 11.4613C16.0437 11.4409 18.554 11.0011 19.9049 10.7699C20.1452 10.7291 20.7753 10.6192 21.3046 10.5263C22.5207 10.3121 22.5105 10.3143 22.6193 10.3121C22.6884 10.3109 22.8527 10.337 23.3106 10.4186Z" fill="#C1C4D0"/>
<path d="M22.432 10.6C22.3413 10.6148 21.9492 10.6828 21.5593 10.7519C21.1695 10.8199 20.5529 10.9276 20.188 10.991C19.4921 11.1112 18.0381 11.3639 17.0747 11.5316C16.7619 11.5872 16.5092 11.6348 16.5137 11.6382C16.5217 11.645 19.0025 12.708 21.4891 13.7688L22.6247 14.2539L22.7584 14.1972C22.8309 14.1655 23.4803 13.8924 24.2 13.5898C26.716 12.5335 28.6687 11.7096 28.705 11.6903C28.7231 11.6812 28.4194 11.6223 27.3053 11.4194C26.5233 11.2778 25.679 11.1259 25.4297 11.0817C25.1803 11.0375 24.7519 10.9582 24.4777 10.906C24.0255 10.8199 23.6447 10.7496 22.9069 10.6182C22.7663 10.5921 22.6383 10.5717 22.6235 10.5728C22.6088 10.5728 22.5227 10.5853 22.432 10.6ZM22.8173 11.433C22.8887 11.4455 22.9987 11.4659 23.061 11.4784C23.2151 11.509 23.7059 11.5985 24.642 11.7674C25.0749 11.8456 25.4557 11.9147 25.4863 11.9215C25.5611 11.9385 25.8581 12.0688 25.8467 12.0802C25.8422 12.0847 25.1225 12.3896 24.2476 12.7579C23.1823 13.2067 22.6451 13.4277 22.619 13.4277C22.5771 13.4277 22.3107 13.3155 20.5733 12.5686C20.0282 12.334 19.5783 12.1368 19.5726 12.13C19.5681 12.1244 19.5658 12.0779 19.5669 12.0292L19.5703 11.9385L19.661 11.9192C19.7109 11.9079 20.3512 11.7946 21.0833 11.6665C21.8155 11.5384 22.4411 11.4296 22.4717 11.4228C22.5657 11.4058 22.6791 11.4092 22.8173 11.433Z" fill="#C1C4D0"/>
<path d="M21.3733 11.8854C20.7057 12.0021 20.1651 12.1007 20.1719 12.1041C20.2048 12.1245 22.6052 13.1445 22.6188 13.1445C22.629 13.1445 23.1707 12.9201 23.8235 12.6447C24.4763 12.3705 25.0226 12.1404 25.0373 12.1347C25.0521 12.1291 25.0623 12.1211 25.0589 12.1189C25.0566 12.1166 24.6894 12.0475 24.2451 11.967C23.7997 11.8854 23.2546 11.7857 23.0336 11.7449C22.8126 11.7041 22.6211 11.6712 22.6086 11.6723C22.595 11.6723 22.0397 11.7687 21.3733 11.8854Z" fill="#C1C4D0"/>
<path d="M9.4668 11.0909C9.4668 11.1181 9.5586 12.0859 9.7218 13.7848C9.81473 14.7538 9.97 16.3813 10.0505 17.2415C10.0845 17.6087 10.1434 18.2139 10.1808 18.5845C10.2771 19.541 10.2964 19.7563 10.6171 23.4397C10.7758 25.2598 10.9095 26.7524 10.9141 26.7569C10.9231 26.7649 11.9715 27.3633 19.3721 31.5827L22.3358 33.2725L22.3392 31.4682C22.3403 30.4754 22.3369 29.6594 22.3324 29.6549C22.3279 29.6503 20.9849 28.9295 19.3495 28.0523C17.7129 27.1763 16.3325 26.4373 16.2815 26.409L16.1886 26.3591L16.1421 26.4475C15.9585 26.8011 15.6367 26.7966 15.4519 26.4385C15.3533 26.2469 15.3216 26.0815 15.3295 25.8038C15.3341 25.6406 15.3397 25.5862 15.3635 25.4978C15.4349 25.2258 15.5721 25.0411 15.7341 24.9991C15.9574 24.9402 16.1739 25.1805 16.2532 25.5749L16.2725 25.6701L19.2871 27.2851C20.9452 28.1736 22.3086 28.9023 22.3165 28.9057C22.3279 28.9103 22.3301 28.4127 22.3279 26.4226L22.3245 23.9327L19.2985 22.3063C17.6347 21.411 16.2487 20.6675 16.2192 20.6517L16.1659 20.6245L16.1263 20.6902C15.8645 21.1209 15.444 20.9146 15.342 20.306C15.3148 20.1383 15.3239 19.8549 15.3635 19.7053C15.4338 19.4356 15.5732 19.2497 15.7341 19.2078C15.9744 19.1443 16.2067 19.4311 16.2668 19.8606C16.2736 19.9105 16.2827 19.9513 16.2872 19.9535C16.2917 19.9547 17.6495 20.6845 19.3041 21.5753C20.9588 22.465 22.3165 23.1915 22.3211 23.1892C22.3256 23.1869 22.3267 21.7839 22.3233 20.0714C22.3165 17.1327 22.3154 16.9559 22.2961 16.9117C22.2848 16.8856 22.2587 16.8516 22.2383 16.8357C22.2168 16.8199 21.7533 16.6057 21.2081 16.3597C20.663 16.1138 19.3676 15.529 18.3295 15.0598C17.2913 14.5906 15.0938 13.5978 13.4448 12.8532C11.7958 12.1075 10.2261 11.4003 9.95753 11.2801C9.47813 11.0659 9.4668 11.0614 9.4668 11.0909Z" fill="#C1C4D0"/>
<path d="M35.658 11.1714C35.5866 11.2008 34.8771 11.5148 34.0826 11.8684C33.2882 12.2231 31.8953 12.843 30.9886 13.2465C30.082 13.65 28.4341 14.3844 27.328 14.8785C26.2218 15.3715 24.8222 15.9948 24.217 16.2634C23.6129 16.532 23.0995 16.7644 23.078 16.7814C23.0564 16.7984 23.027 16.8346 23.0122 16.863L22.9873 16.914L22.9896 22.8606L22.993 28.8072L25.3446 27.548C26.6378 26.8556 27.7076 26.2821 27.7224 26.273C27.7416 26.2606 27.7473 26.2458 27.7473 26.2084C27.7473 26.1359 27.7858 25.967 27.8255 25.8662C27.8935 25.6894 28.0102 25.5522 28.1236 25.5137C28.3638 25.4344 28.5826 25.6599 28.6721 26.0781C28.7004 26.2084 28.7004 26.4974 28.6732 26.6357C28.62 26.902 28.4976 27.1083 28.3457 27.1888C28.2822 27.2216 28.1576 27.2239 28.0986 27.1933C28.0272 27.1559 27.9649 27.097 27.9116 27.0165L27.8584 26.9372L27.7099 27.0154C27.6272 27.0596 26.5324 27.6455 25.2766 28.3176L22.993 29.5416L22.9896 31.3787C22.9884 32.3896 22.9907 33.2158 22.9964 33.2158C23.0009 33.2158 25.5498 31.7708 28.6596 30.004L34.315 26.7921L34.4986 24.9119C34.5994 23.8783 34.7921 21.9006 34.927 20.5168C35.0618 19.133 35.1888 17.832 35.2092 17.6268C35.2296 17.4206 35.2443 17.2517 35.2432 17.2494C35.2409 17.2449 29.8009 20.1666 29.7805 20.1836C29.7737 20.1893 29.7646 20.2244 29.7612 20.2618C29.7397 20.4613 29.6411 20.6993 29.5346 20.8081C29.4201 20.9237 29.2909 20.9554 29.1708 20.8965C28.9498 20.79 28.7934 20.3865 28.8172 19.9921C28.8353 19.7008 28.9146 19.4753 29.0484 19.3314C29.1617 19.2078 29.2966 19.1738 29.4224 19.2373C29.4892 19.2702 29.5878 19.371 29.6286 19.4492C29.6445 19.4787 29.6604 19.5025 29.6649 19.5025C29.6706 19.5025 35.2964 16.4844 35.3157 16.4708C35.3191 16.4674 35.3814 15.8169 35.488 14.6575C35.5378 14.109 35.6228 13.2091 35.675 12.6572C35.7271 12.1052 35.7781 11.5624 35.7872 11.4502C35.7974 11.338 35.8076 11.2167 35.811 11.1804C35.8166 11.1317 35.8144 11.1158 35.803 11.117C35.7951 11.117 35.7294 11.1419 35.658 11.1714Z" fill="#C1C4D0"/>
<path d="M50.0081 19.824C50.0081 19.184 49.9161 18.612 49.7321 18.108C49.5561 17.596 49.3041 17.164 48.9761 16.812C48.6481 16.46 48.2561 16.192 47.8001 16.008C47.3521 15.816 46.8561 15.72 46.3121 15.72C45.6961 15.72 45.1441 15.816 44.6561 16.008C44.1681 16.2 43.7441 16.476 43.3841 16.836C43.0321 17.196 42.7481 17.628 42.5321 18.132C42.3161 18.636 42.1721 19.2 42.1001 19.824H50.0081ZM42.0401 20.556V20.784C42.0401 21.68 42.1441 22.468 42.3521 23.148C42.5601 23.828 42.8561 24.4 43.2401 24.864C43.6241 25.32 44.0881 25.664 44.6321 25.896C45.1761 26.128 45.7841 26.244 46.4561 26.244C47.0561 26.244 47.5761 26.18 48.0161 26.052C48.4561 25.916 48.8241 25.768 49.1201 25.608C49.4241 25.44 49.6641 25.292 49.8401 25.164C50.0161 25.028 50.1441 24.96 50.2241 24.96C50.3281 24.96 50.4081 25 50.4641 25.08L50.7761 25.464C50.5841 25.704 50.3281 25.928 50.0081 26.136C49.6961 26.344 49.3441 26.524 48.9521 26.676C48.5681 26.82 48.1521 26.936 47.7041 27.024C47.2641 27.112 46.8201 27.156 46.3721 27.156C45.5561 27.156 44.8121 27.016 44.1401 26.736C43.4681 26.448 42.8921 26.032 42.4121 25.488C41.9321 24.944 41.5601 24.28 41.2961 23.496C41.0401 22.704 40.9121 21.8 40.9121 20.784C40.9121 19.928 41.0321 19.14 41.2721 18.42C41.5201 17.692 41.8721 17.068 42.3281 16.548C42.7921 16.02 43.3561 15.608 44.0201 15.312C44.6921 15.016 45.4521 14.868 46.3001 14.868C46.9721 14.868 47.5961 14.984 48.1721 15.216C48.7481 15.448 49.2481 15.788 49.6721 16.236C50.0961 16.676 50.4281 17.22 50.6681 17.868C50.9161 18.516 51.0401 19.26 51.0401 20.1C51.0401 20.276 51.0161 20.396 50.9681 20.46C50.9201 20.524 50.8401 20.556 50.7281 20.556H42.0401ZM60.7117 16.536C60.6477 16.648 60.5557 16.704 60.4357 16.704C60.3477 16.704 60.2357 16.656 60.0997 16.56C59.9637 16.456 59.7797 16.344 59.5477 16.224C59.3237 16.096 59.0437 15.984 58.7077 15.888C58.3717 15.784 57.9637 15.732 57.4837 15.732C57.0517 15.732 56.6557 15.796 56.2957 15.924C55.9437 16.044 55.6397 16.208 55.3837 16.416C55.1357 16.624 54.9437 16.868 54.8077 17.148C54.6717 17.42 54.6037 17.708 54.6037 18.012C54.6037 18.388 54.6997 18.7 54.8917 18.948C55.0837 19.196 55.3317 19.408 55.6357 19.584C55.9477 19.76 56.3037 19.912 56.7037 20.04C57.1037 20.168 57.5077 20.296 57.9157 20.424C58.3317 20.552 58.7397 20.696 59.1397 20.856C59.5397 21.008 59.8917 21.2 60.1957 21.432C60.5077 21.664 60.7597 21.948 60.9517 22.284C61.1437 22.62 61.2397 23.028 61.2397 23.508C61.2397 24.028 61.1477 24.512 60.9637 24.96C60.7797 25.408 60.5077 25.796 60.1477 26.124C59.7957 26.452 59.3597 26.712 58.8397 26.904C58.3197 27.096 57.7237 27.192 57.0517 27.192C56.2117 27.192 55.4877 27.06 54.8797 26.796C54.2717 26.524 53.7277 26.172 53.2477 25.74L53.5117 25.332C53.5517 25.268 53.5957 25.22 53.6437 25.188C53.6997 25.156 53.7717 25.14 53.8597 25.14C53.9637 25.14 54.0877 25.204 54.2317 25.332C54.3837 25.46 54.5837 25.6 54.8317 25.752C55.0797 25.896 55.3837 26.032 55.7437 26.16C56.1117 26.288 56.5637 26.352 57.0997 26.352C57.6037 26.352 58.0477 26.284 58.4317 26.148C58.8157 26.004 59.1357 25.812 59.3917 25.572C59.6477 25.332 59.8397 25.052 59.9677 24.732C60.1037 24.404 60.1717 24.06 60.1717 23.7C60.1717 23.3 60.0757 22.968 59.8837 22.704C59.6917 22.44 59.4397 22.216 59.1277 22.032C58.8157 21.848 58.4597 21.692 58.0597 21.564C57.6677 21.436 57.2637 21.308 56.8477 21.18C56.4317 21.052 56.0237 20.912 55.6237 20.76C55.2317 20.608 54.8797 20.416 54.5677 20.184C54.2557 19.952 54.0037 19.672 53.8117 19.344C53.6197 19.008 53.5237 18.592 53.5237 18.096C53.5237 17.672 53.6157 17.264 53.7997 16.872C53.9837 16.48 54.2437 16.136 54.5797 15.84C54.9237 15.544 55.3397 15.308 55.8277 15.132C56.3157 14.956 56.8637 14.868 57.4717 14.868C58.1997 14.868 58.8437 14.972 59.4037 15.18C59.9717 15.388 60.4877 15.708 60.9517 16.14L60.7117 16.536ZM69.071 14.868C69.927 14.868 70.691 15.016 71.363 15.312C72.043 15.6 72.615 16.012 73.079 16.548C73.543 17.084 73.895 17.732 74.135 18.492C74.383 19.244 74.507 20.088 74.507 21.024C74.507 21.96 74.383 22.804 74.135 23.556C73.895 24.308 73.543 24.952 73.079 25.488C72.615 26.024 72.043 26.436 71.363 26.724C70.691 27.012 69.927 27.156 69.071 27.156C68.215 27.156 67.447 27.012 66.767 26.724C66.095 26.436 65.523 26.024 65.051 25.488C64.587 24.952 64.231 24.308 63.983 23.556C63.743 22.804 63.623 21.96 63.623 21.024C63.623 20.088 63.743 19.244 63.983 18.492C64.231 17.732 64.587 17.084 65.051 16.548C65.523 16.012 66.095 15.6 66.767 15.312C67.447 15.016 68.215 14.868 69.071 14.868ZM69.071 26.256C69.783 26.256 70.403 26.136 70.931 25.896C71.467 25.648 71.911 25.296 72.263 24.84C72.623 24.384 72.891 23.836 73.067 23.196C73.243 22.548 73.331 21.824 73.331 21.024C73.331 20.232 73.243 19.512 73.067 18.864C72.891 18.216 72.623 17.664 72.263 17.208C71.911 16.744 71.467 16.388 70.931 16.14C70.403 15.892 69.783 15.768 69.071 15.768C68.359 15.768 67.735 15.892 67.199 16.14C66.671 16.388 66.227 16.744 65.867 17.208C65.515 17.664 65.247 18.216 65.063 18.864C64.887 19.512 64.799 20.232 64.799 21.024C64.799 21.824 64.887 22.548 65.063 23.196C65.247 23.836 65.515 24.384 65.867 24.84C66.227 25.296 66.671 25.648 67.199 25.896C67.735 26.136 68.359 26.256 69.071 26.256ZM78.9858 9.54V27H77.8338V9.54H78.9858ZM92.6107 15.06L87.5707 27H86.5627L81.5227 15.06H82.4227C82.5347 15.06 82.6267 15.092 82.6987 15.156C82.7707 15.212 82.8187 15.276 82.8427 15.348L86.7907 24.768C86.9107 25.12 87.0067 25.468 87.0787 25.812C87.1507 25.468 87.2507 25.12 87.3787 24.768L91.3387 15.348C91.3787 15.26 91.4307 15.192 91.4947 15.144C91.5667 15.088 91.6507 15.06 91.7467 15.06H92.6107ZM103.164 19.824C103.164 19.184 103.072 18.612 102.888 18.108C102.712 17.596 102.46 17.164 102.132 16.812C101.804 16.46 101.412 16.192 100.956 16.008C100.508 15.816 100.012 15.72 99.4683 15.72C98.8523 15.72 98.3003 15.816 97.8123 16.008C97.3243 16.2 96.9003 16.476 96.5403 16.836C96.1883 17.196 95.9043 17.628 95.6883 18.132C95.4723 18.636 95.3283 19.2 95.2563 19.824H103.164ZM95.1963 20.556V20.784C95.1963 21.68 95.3003 22.468 95.5083 23.148C95.7163 23.828 96.0123 24.4 96.3963 24.864C96.7803 25.32 97.2443 25.664 97.7883 25.896C98.3323 26.128 98.9403 26.244 99.6123 26.244C100.212 26.244 100.732 26.18 101.172 26.052C101.612 25.916 101.98 25.768 102.276 25.608C102.58 25.44 102.82 25.292 102.996 25.164C103.172 25.028 103.3 24.96 103.38 24.96C103.484 24.96 103.564 25 103.62 25.08L103.932 25.464C103.74 25.704 103.484 25.928 103.164 26.136C102.852 26.344 102.5 26.524 102.108 26.676C101.724 26.82 101.308 26.936 100.86 27.024C100.42 27.112 99.9763 27.156 99.5283 27.156C98.7123 27.156 97.9683 27.016 97.2963 26.736C96.6243 26.448 96.0483 26.032 95.5683 25.488C95.0883 24.944 94.7163 24.28 94.4523 23.496C94.1963 22.704 94.0683 21.8 94.0683 20.784C94.0683 19.928 94.1883 19.14 94.4283 18.42C94.6763 17.692 95.0283 17.068 95.4843 16.548C95.9483 16.02 96.5123 15.608 97.1763 15.312C97.8483 15.016 98.6083 14.868 99.4563 14.868C100.128 14.868 100.752 14.984 101.328 15.216C101.904 15.448 102.404 15.788 102.828 16.236C103.252 16.676 103.584 17.22 103.824 17.868C104.072 18.516 104.196 19.26 104.196 20.1C104.196 20.276 104.172 20.396 104.124 20.46C104.076 20.524 103.996 20.556 103.884 20.556H95.1963Z" fill="#C1C4D0"/>
</g>
<defs>
<clipPath id="clip0_288_430">
<rect width="118" height="40" fill="white"/>
</clipPath>
</defs>
</svg>
