<svg width="118" height="40" viewBox="0 0 118 40" fill="none" xmlns="http://www.w3.org/2000/svg">
<g clip-path="url(#clip0_288_449)">
<path d="M39.8585 27V14.688H41.6705C42.0545 14.688 42.3065 14.868 42.4265 15.228L42.6185 16.14C42.8345 15.9 43.0585 15.68 43.2905 15.48C43.5305 15.28 43.7825 15.108 44.0465 14.964C44.3185 14.82 44.6065 14.708 44.9105 14.628C45.2225 14.54 45.5625 14.496 45.9305 14.496C46.7065 14.496 47.3425 14.708 47.8385 15.132C48.3425 15.548 48.7185 16.104 48.9665 16.8C49.1585 16.392 49.3985 16.044 49.6865 15.756C49.9745 15.46 50.2905 15.22 50.6345 15.036C50.9785 14.852 51.3425 14.716 51.7265 14.628C52.1185 14.54 52.5105 14.496 52.9025 14.496C53.5825 14.496 54.1865 14.6 54.7145 14.808C55.2425 15.016 55.6865 15.32 56.0465 15.72C56.4065 16.12 56.6785 16.608 56.8625 17.184C57.0545 17.76 57.1505 18.42 57.1505 19.164V27H54.1865V19.164C54.1865 18.38 54.0145 17.792 53.6705 17.4C53.3265 17 52.8225 16.8 52.1585 16.8C51.8545 16.8 51.5705 16.852 51.3065 16.956C51.0505 17.06 50.8225 17.212 50.6225 17.412C50.4305 17.604 50.2785 17.848 50.1665 18.144C50.0545 18.44 49.9985 18.78 49.9985 19.164V27H47.0225V19.164C47.0225 18.34 46.8545 17.74 46.5185 17.364C46.1905 16.988 45.7065 16.8 45.0665 16.8C44.6345 16.8 44.2305 16.908 43.8545 17.124C43.4865 17.332 43.1425 17.62 42.8225 17.988V27H39.8585ZM67.8999 19.428C67.8999 19.044 67.8439 18.684 67.7319 18.348C67.6279 18.004 67.4679 17.704 67.2519 17.448C67.0359 17.192 66.7599 16.992 66.4239 16.848C66.0959 16.696 65.7119 16.62 65.2719 16.62C64.4159 16.62 63.7399 16.864 63.2439 17.352C62.7559 17.84 62.4439 18.532 62.3079 19.428H67.8999ZM62.2479 21.216C62.2959 21.848 62.4079 22.396 62.5839 22.86C62.7599 23.316 62.9919 23.696 63.2799 24C63.5679 24.296 63.9079 24.52 64.2999 24.672C64.6999 24.816 65.1399 24.888 65.6199 24.888C66.0999 24.888 66.5119 24.832 66.8559 24.72C67.2079 24.608 67.5119 24.484 67.7679 24.348C68.0319 24.212 68.2599 24.088 68.4519 23.976C68.6519 23.864 68.8439 23.808 69.0279 23.808C69.2759 23.808 69.4599 23.9 69.5799 24.084L70.4319 25.164C70.1039 25.548 69.7359 25.872 69.3279 26.136C68.9199 26.392 68.4919 26.6 68.0439 26.76C67.6039 26.912 67.1519 27.02 66.6879 27.084C66.2319 27.148 65.7879 27.18 65.3559 27.18C64.4999 27.18 63.7039 27.04 62.9679 26.76C62.2319 26.472 61.5919 26.052 61.0479 25.5C60.5039 24.94 60.0759 24.252 59.7639 23.436C59.4519 22.612 59.2959 21.66 59.2959 20.58C59.2959 19.74 59.4319 18.952 59.7039 18.216C59.9759 17.472 60.3639 16.828 60.8679 16.284C61.3799 15.732 61.9999 15.296 62.7279 14.976C63.4639 14.656 64.2919 14.496 65.2119 14.496C65.9879 14.496 66.7039 14.62 67.3599 14.868C68.0159 15.116 68.5799 15.48 69.0519 15.96C69.5239 16.432 69.8919 17.016 70.1559 17.712C70.4279 18.4 70.5639 19.188 70.5639 20.076C70.5639 20.524 70.5159 20.828 70.4199 20.988C70.3239 21.14 70.1399 21.216 69.8679 21.216H62.2479ZM75.7882 9.168V27H72.8242V9.168H75.7882ZM84.1893 14.496C85.1013 14.496 85.9293 14.644 86.6733 14.94C87.4253 15.236 88.0653 15.656 88.5933 16.2C89.1293 16.744 89.5413 17.408 89.8293 18.192C90.1173 18.976 90.2613 19.852 90.2613 20.82C90.2613 21.796 90.1173 22.676 89.8293 23.46C89.5413 24.244 89.1293 24.912 88.5933 25.464C88.0653 26.016 87.4253 26.44 86.6733 26.736C85.9293 27.032 85.1013 27.18 84.1893 27.18C83.2693 27.18 82.4333 27.032 81.6813 26.736C80.9293 26.44 80.2853 26.016 79.7493 25.464C79.2213 24.912 78.8093 24.244 78.5133 23.46C78.2253 22.676 78.0813 21.796 78.0813 20.82C78.0813 19.852 78.2253 18.976 78.5133 18.192C78.8093 17.408 79.2213 16.744 79.7493 16.2C80.2853 15.656 80.9293 15.236 81.6813 14.94C82.4333 14.644 83.2693 14.496 84.1893 14.496ZM84.1893 24.9C85.2133 24.9 85.9693 24.556 86.4573 23.868C86.9533 23.18 87.2013 22.172 87.2013 20.844C87.2013 19.516 86.9533 18.504 86.4573 17.808C85.9693 17.112 85.2133 16.764 84.1893 16.764C83.1493 16.764 82.3773 17.116 81.8733 17.82C81.3773 18.516 81.1293 19.524 81.1293 20.844C81.1293 22.164 81.3773 23.172 81.8733 23.868C82.3773 24.556 83.1493 24.9 84.1893 24.9ZM95.2946 16.2C95.5426 15.952 95.8026 15.724 96.0746 15.516C96.3546 15.3 96.6466 15.12 96.9506 14.976C97.2626 14.824 97.5946 14.708 97.9466 14.628C98.2986 14.54 98.6826 14.496 99.0986 14.496C99.7706 14.496 100.367 14.612 100.887 14.844C101.407 15.068 101.839 15.388 102.183 15.804C102.535 16.212 102.799 16.704 102.975 17.28C103.159 17.848 103.251 18.476 103.251 19.164V27H100.287V19.164C100.287 18.412 100.115 17.832 99.7706 17.424C99.4266 17.008 98.9026 16.8 98.1986 16.8C97.6866 16.8 97.2066 16.916 96.7586 17.148C96.3106 17.38 95.8866 17.696 95.4866 18.096V27H92.5226V14.688H94.3346C94.7186 14.688 94.9706 14.868 95.0906 15.228L95.2946 16.2Z" fill="#C1C4D0"/>
<path d="M20.7597 7.24358C20.5917 7.27058 20.5047 7.29758 20.3622 7.36658C20.1762 7.45808 20.0562 7.55558 19.8507 7.78658C19.3887 8.30258 19.3062 8.39408 19.2387 8.47358C19.1712 8.55158 19.0002 8.74358 18.5382 9.26108C18.4362 9.37508 18.3192 9.50708 18.2787 9.55358C18.2067 9.63608 17.9397 9.93758 17.5782 10.3396C17.4762 10.4536 17.3682 10.5766 17.3397 10.6126C17.3112 10.6486 17.2797 10.6786 17.2692 10.6801C17.2602 10.6801 17.2497 10.6891 17.2467 10.7011C17.2437 10.7131 17.1432 10.8331 17.0232 10.9681C16.5042 11.5471 16.4277 11.6326 16.3587 11.7136C16.3197 11.7601 16.1862 11.9086 16.0647 12.0451C15.9432 12.1816 15.7632 12.3841 15.6642 12.4951C15.5637 12.6061 15.4557 12.7276 15.4212 12.7636C15.3882 12.7996 15.3597 12.8386 15.3597 12.8506C15.3597 12.8611 15.3507 12.8701 15.3387 12.8701C15.3282 12.8701 15.3072 12.8851 15.2952 12.9046C15.2832 12.9241 15.1992 13.0201 15.1107 13.1191C14.9007 13.3516 14.5332 13.7641 14.4387 13.8736C14.3712 13.9516 14.1927 14.1511 13.7382 14.6611C13.6362 14.7751 13.5192 14.9071 13.4787 14.9536C13.4112 15.0316 13.2402 15.2236 12.7782 15.7411C12.6762 15.8551 12.5592 15.9871 12.5187 16.0336C12.4512 16.1116 12.2802 16.3036 11.8182 16.8211C11.7162 16.9351 11.5992 17.0671 11.5587 17.1136C11.4912 17.1916 11.3217 17.3821 10.8582 17.9011C10.5597 18.2341 10.4862 18.3211 10.4847 18.3406C10.4847 18.3511 10.4712 18.3601 10.4547 18.3601C10.4382 18.3601 10.4247 18.3676 10.4247 18.3766C10.4247 18.3856 10.3482 18.4786 10.2537 18.5821C9.92073 18.9541 9.71073 19.1896 9.63873 19.2736C9.59973 19.3201 9.46623 19.4686 9.34473 19.6051C8.60523 20.4331 8.59323 20.4481 8.49873 20.6926C8.41473 20.9086 8.40723 20.9656 8.40723 21.3751C8.40873 22.0951 8.53023 22.9426 8.72973 23.6326C8.84523 24.0316 8.89473 24.1906 8.92023 24.2401C8.93073 24.2611 8.93973 24.2881 8.93973 24.3001C8.93973 24.3121 8.95323 24.3496 8.96973 24.3826C8.98623 24.4156 8.99823 24.4516 8.99973 24.4621C8.99973 24.4816 9.04173 24.5926 9.08223 24.6826C9.09423 24.7066 9.12423 24.7786 9.14973 24.8401C9.17523 24.9016 9.20223 24.9661 9.20973 24.9826C9.30573 25.2076 9.52923 25.6516 9.64623 25.8526C9.69423 25.9351 9.73323 26.0116 9.73323 26.0206C9.73473 26.0311 9.74073 26.0401 9.74823 26.0401C9.75573 26.0401 9.76773 26.0551 9.77373 26.0731C9.77973 26.0926 9.80973 26.1466 9.84123 26.1946C9.87423 26.2426 9.89973 26.2846 9.89973 26.2876C9.89973 26.2921 9.92673 26.3326 9.95823 26.3806C9.98973 26.4286 10.0542 26.5246 10.0992 26.5951C10.1442 26.6656 10.2087 26.7601 10.2417 26.8051C10.2747 26.8501 10.3302 26.9281 10.3662 26.9776C10.4307 27.0691 10.4502 27.0946 10.7067 27.4201C11.0847 27.8971 11.5917 28.4266 12.1452 28.9216C12.3417 29.0971 12.8787 29.5351 12.9942 29.6146C13.0197 29.6326 13.1097 29.6986 13.1922 29.7601C13.3677 29.8906 13.7967 30.1801 13.8132 30.1801C13.8192 30.1801 13.8372 30.1936 13.8522 30.2101C13.8672 30.2266 13.8852 30.2401 13.8912 30.2401C13.8987 30.2401 13.9437 30.2656 13.9902 30.2956C14.0847 30.3571 14.0847 30.3571 14.2227 30.4396C14.2752 30.4696 14.3442 30.5116 14.3772 30.5326C14.4102 30.5536 14.4582 30.5806 14.4837 30.5926C14.5107 30.6046 14.5707 30.6376 14.6187 30.6646C14.8422 30.7936 15.3132 31.0351 15.3417 31.0351C15.3507 31.0351 15.3597 31.0411 15.3627 31.0486C15.3672 31.0621 15.9837 31.3396 16.0872 31.3756C16.1202 31.3861 16.1682 31.4056 16.1922 31.4161C16.3122 31.4716 16.5372 31.5571 16.7022 31.6126C16.7352 31.6246 16.8192 31.6546 16.8897 31.6801C17.0067 31.7221 17.0652 31.7416 17.3622 31.8316C17.5587 31.8931 17.6472 31.9186 17.7597 31.9486C17.8212 31.9636 17.9232 31.9906 17.9847 32.0071C18.2172 32.0671 18.5802 32.1481 18.8022 32.1886C18.8937 32.2036 19.0287 32.2291 19.1022 32.2426C19.1772 32.2561 19.2987 32.2741 19.3722 32.2801C19.4472 32.2876 19.5777 32.3041 19.6647 32.3161C20.0517 32.3716 20.4297 32.3926 20.9997 32.3926C21.5847 32.3926 21.8907 32.3746 22.4247 32.3086C22.7457 32.2696 23.2722 32.1826 23.4972 32.1301C23.5632 32.1151 23.6817 32.0881 23.7597 32.0701C23.9652 32.0236 24.2727 31.9441 24.4497 31.8916C24.8322 31.7761 24.9567 31.7371 24.9942 31.7251C25.0167 31.7161 25.0572 31.7026 25.0842 31.6936C25.1097 31.6831 25.1562 31.6666 25.1847 31.6531C25.2132 31.6411 25.2582 31.6261 25.2822 31.6201C25.3257 31.6081 25.4277 31.5706 25.6047 31.5001C25.6497 31.4821 25.7142 31.4566 25.7472 31.4461C25.7802 31.4341 25.8282 31.4146 25.8522 31.4041C25.8777 31.3921 25.9407 31.3651 25.9947 31.3426C26.1042 31.2976 26.1342 31.2841 26.2947 31.2106C26.3562 31.1821 26.4552 31.1386 26.5122 31.1131C26.6247 31.0636 27.0552 30.8476 27.2022 30.7651C27.2517 30.7381 27.3492 30.6856 27.4197 30.6496C27.4902 30.6121 27.5577 30.5731 27.5697 30.5626C27.5817 30.5536 27.6027 30.5401 27.6147 30.5356C27.6267 30.5296 27.6642 30.5086 27.6972 30.4891C27.7302 30.4681 27.7977 30.4276 27.8472 30.3976C27.8967 30.3676 27.9612 30.3286 27.9897 30.3121C28.0827 30.2566 28.5642 29.9371 28.6722 29.8591C29.3562 29.3701 30.0972 28.7386 30.5397 28.2646C30.6177 28.1821 30.6912 28.1116 30.7017 28.1116C30.7107 28.1101 30.7197 28.0966 30.7197 28.0816C30.7197 28.0651 30.7287 28.0501 30.7392 28.0471C30.7797 28.0366 31.2822 27.4471 31.5237 27.1246C31.7457 26.8276 32.0487 26.3866 32.1042 26.2801C32.1102 26.2681 32.1357 26.2276 32.1597 26.1901C32.1837 26.1526 32.2122 26.1046 32.2212 26.0806C32.2302 26.0581 32.2437 26.0401 32.2512 26.0401C32.2587 26.0401 32.2647 26.0326 32.2647 26.0236C32.2647 26.0131 32.3097 25.9276 32.3652 25.8316C32.4522 25.6801 32.6802 25.2316 32.7357 25.1026C32.7462 25.0771 32.7657 25.0336 32.7792 25.0051C32.7927 24.9766 32.8242 24.9016 32.8497 24.8401C32.8752 24.7786 32.9052 24.7066 32.9172 24.6826C32.9502 24.6076 32.9997 24.4771 32.9997 24.4621C32.9997 24.4531 33.0102 24.4261 33.0207 24.4006C33.0627 24.3091 33.1362 24.0826 33.2682 23.6401C33.2847 23.5861 33.3117 23.4781 33.3297 23.4001C33.3462 23.3221 33.3732 23.2036 33.3897 23.1376C33.5142 22.6096 33.5922 21.9256 33.5922 21.3601C33.5922 20.9716 33.5817 20.8951 33.5067 20.7076C33.3942 20.4286 33.4122 20.4526 32.6172 19.5601C32.5017 19.4311 32.2857 19.1881 32.1372 19.0201C31.9887 18.8521 31.8012 18.6421 31.7217 18.5536C31.6407 18.4651 31.5747 18.3856 31.5747 18.3766C31.5747 18.3676 31.5657 18.3601 31.5567 18.3601C31.5462 18.3586 31.5072 18.3211 31.4697 18.2746C31.4322 18.2281 31.3047 18.0811 31.1847 17.9476C31.0647 17.8156 30.9207 17.6506 30.8622 17.5831C30.8052 17.5156 30.7482 17.4601 30.7392 17.4601C30.7287 17.4601 30.7197 17.4466 30.7197 17.4301C30.7197 17.4136 30.7137 17.4001 30.7062 17.4001C30.6987 17.4001 30.6327 17.3311 30.5607 17.2471C30.4872 17.1631 30.3327 16.9891 30.2172 16.8601C30.1017 16.7311 29.8857 16.4881 29.7372 16.3201C29.5887 16.1536 29.3727 15.9106 29.2572 15.7801C29.1417 15.6511 28.9257 15.4081 28.7772 15.2401C28.6287 15.0736 28.4127 14.8306 28.2972 14.7001C28.1817 14.5711 27.9657 14.3281 27.8172 14.1601C27.6687 13.9936 27.4527 13.7506 27.3372 13.6201C27.2217 13.4911 27.0057 13.2481 26.8572 13.0801C26.7087 12.9136 26.4927 12.6706 26.3772 12.5401C26.2617 12.4111 26.0457 12.1681 25.8972 12.0001C25.7487 11.8321 25.5597 11.6206 25.4772 11.5291C25.3932 11.4376 25.2642 11.2921 25.1892 11.2051C25.1142 11.1181 24.9852 10.9726 24.9012 10.8826C24.8187 10.7911 24.7497 10.7086 24.7497 10.6981C24.7497 10.6891 24.7392 10.6801 24.7272 10.6801C24.7152 10.6801 24.7047 10.6741 24.7047 10.6666C24.7047 10.6606 24.6252 10.5661 24.5292 10.4596C24.4317 10.3531 24.3117 10.2196 24.2622 10.1626C24.2127 10.1041 24.1092 9.98708 24.0297 9.90008C23.9502 9.81308 23.8422 9.69158 23.7897 9.63008C23.7357 9.56858 23.6277 9.44708 23.5497 9.36008C23.4702 9.27308 23.3592 9.14858 23.3022 9.08258C23.1192 8.86958 23.0727 8.82008 23.0562 8.82008C23.0472 8.82008 23.0397 8.80658 23.0397 8.79008C23.0397 8.77358 23.0337 8.76008 23.0262 8.76008C23.0172 8.76008 22.9527 8.69108 22.8792 8.60708C22.8072 8.52308 22.6797 8.37908 22.5972 8.28758C22.5132 8.19758 22.3992 8.06858 22.3437 8.00258C21.9372 7.52858 21.7842 7.40708 21.4572 7.29308C21.3627 7.26008 21.0717 7.21358 20.9742 7.21658C20.9427 7.21808 20.8467 7.23008 20.7597 7.24358ZM21.0957 10.8106C21.1302 10.8511 21.2052 10.9366 21.2622 11.0026C21.3192 11.0686 21.4302 11.1931 21.5097 11.2801C21.5877 11.3671 21.6957 11.4886 21.7497 11.5501C21.8022 11.6116 21.9102 11.7331 21.9897 11.8201C22.0677 11.9071 22.1757 12.0286 22.2297 12.0901C22.2822 12.1516 22.3902 12.2731 22.4697 12.3601C22.5492 12.4471 22.6722 12.5851 22.7442 12.6676C22.8147 12.7501 22.9107 12.8581 22.9572 12.9061C23.0022 12.9556 23.0397 13.0036 23.0397 13.0141C23.0397 13.0246 23.0487 13.0351 23.0592 13.0381C23.0697 13.0411 23.1252 13.0966 23.1822 13.1626C23.2392 13.2286 23.3502 13.3531 23.4297 13.4401C23.5077 13.5271 23.6157 13.6486 23.6697 13.7101C23.7222 13.7716 23.8302 13.8931 23.9097 13.9801C23.9877 14.0671 24.0957 14.1886 24.1497 14.2501C24.2022 14.3116 24.3102 14.4331 24.3897 14.5201C24.4677 14.6071 24.5757 14.7286 24.6297 14.7901C24.6822 14.8516 24.7902 14.9731 24.8697 15.0601C24.9477 15.1471 25.0557 15.2686 25.1097 15.3301C25.1622 15.3916 25.2702 15.5131 25.3497 15.6001C25.4277 15.6871 25.5357 15.8086 25.5897 15.8701C25.6422 15.9316 25.7502 16.0531 25.8297 16.1401C25.9077 16.2271 26.0157 16.3486 26.0697 16.4101C26.1222 16.4716 26.2302 16.5931 26.3097 16.6801C26.3877 16.7671 26.4957 16.8886 26.5497 16.9501C26.6022 17.0116 26.7102 17.1331 26.7897 17.2201C26.8677 17.3071 26.9757 17.4286 27.0297 17.4901C27.0822 17.5516 27.1902 17.6731 27.2697 17.7601C27.3492 17.8471 27.4722 17.9851 27.5427 18.0676C27.6132 18.1501 27.6957 18.2416 27.7257 18.2686C27.7557 18.2971 27.7797 18.3301 27.7797 18.3406C27.7797 18.3511 27.7887 18.3601 27.7992 18.3616C27.8082 18.3616 27.8622 18.4171 27.9177 18.4846C27.9732 18.5521 28.0797 18.6751 28.1562 18.7576C28.2312 18.8401 28.3542 18.9781 28.4292 19.0651C28.5042 19.1521 28.6302 19.2931 28.7097 19.3801C28.7877 19.4671 28.8957 19.5886 28.9497 19.6501C29.0037 19.7116 29.1147 19.8376 29.1972 19.9291C29.3577 20.1061 29.6922 20.4841 29.8857 20.7061C29.9517 20.7811 30.0732 20.9176 30.1557 21.0091C30.2397 21.1006 30.3942 21.2746 30.5007 21.3946C30.6057 21.5161 30.6987 21.6151 30.7062 21.6151C30.7137 21.6151 30.7197 21.6286 30.7197 21.6451C30.7197 21.6616 30.7302 21.6751 30.7422 21.6751C30.7542 21.6751 30.7677 21.6916 30.7737 21.7111C30.7842 21.7561 30.7527 21.9811 30.7347 21.9871C30.7257 21.9901 30.7197 22.0666 30.7197 22.1656C30.7197 22.2946 30.7137 22.3426 30.6987 22.3591C30.6867 22.3711 30.6732 22.4191 30.6672 22.4656C30.6627 22.5136 30.6447 22.5961 30.6282 22.6486C30.6132 22.7011 30.5997 22.7566 30.5997 22.7701C30.5997 22.7941 30.5862 22.8436 30.5067 23.1076C30.4722 23.2246 30.4212 23.3701 30.3357 23.5951C30.2877 23.7241 30.1002 24.1396 30.0372 24.2551C29.9997 24.3256 29.9547 24.4096 29.9397 24.4426C29.9232 24.4756 29.8962 24.5251 29.8797 24.5506C29.8167 24.6541 29.7897 24.6991 29.7657 24.7426C29.7117 24.8401 29.4912 25.1716 29.3727 25.3336C29.1372 25.6546 28.8192 26.0371 28.7892 26.0386C28.7787 26.0401 28.7697 26.0506 28.7697 26.0641C28.7697 26.0941 28.2027 26.6611 27.9912 26.8441C27.7527 27.0496 27.4902 27.2611 27.2997 27.4006C27.2052 27.4711 27.1107 27.5401 27.0897 27.5566C27.0177 27.6091 26.5812 27.9001 26.5722 27.9001C26.5677 27.9001 26.5452 27.9121 26.5227 27.9286C26.3667 28.0366 26.0592 28.2121 25.7622 28.3651C25.6557 28.4191 25.5537 28.4716 25.5372 28.4806C25.4862 28.5076 25.1142 28.6816 25.0422 28.7101C24.8967 28.7716 24.7797 28.8211 24.7422 28.8361C24.6672 28.8691 24.4602 28.9471 24.2817 29.0086C24.2382 29.0236 24.1782 29.0446 24.1497 29.0551C24.1212 29.0656 24.0672 29.0821 24.0297 29.0941C23.9922 29.1046 23.9292 29.1256 23.8872 29.1376C23.6292 29.2216 23.2782 29.3161 23.0247 29.3686C22.9467 29.3851 22.8207 29.4136 22.7442 29.4301C22.6692 29.4466 22.5867 29.4601 22.5627 29.4601C22.5387 29.4601 22.4562 29.4736 22.3782 29.4901C22.3002 29.5066 22.2072 29.5201 22.1697 29.5201C22.1322 29.5201 22.0407 29.5306 21.9642 29.5426C21.5487 29.6101 20.4507 29.6101 20.0352 29.5426C19.9587 29.5306 19.8672 29.5201 19.8297 29.5201C19.7922 29.5201 19.6992 29.5066 19.6212 29.4901C19.5432 29.4736 19.4607 29.4601 19.4367 29.4601C19.3917 29.4601 19.3017 29.4421 18.9297 29.3566C18.5877 29.2786 18.4392 29.2396 18.2802 29.1886C18.2337 29.1721 18.1842 29.1601 18.1707 29.1601C18.1587 29.1601 18.1167 29.1481 18.0777 29.1331C17.9937 29.1001 17.8827 29.0611 17.7897 29.0326C17.7072 29.0086 17.5977 28.9696 17.5572 28.9501C17.5287 28.9366 17.5047 28.9276 17.3397 28.8691C17.3022 28.8556 17.2587 28.8376 17.2422 28.8301C17.2257 28.8226 17.1387 28.7851 17.0472 28.7476C16.9572 28.7086 16.8252 28.6501 16.7547 28.6171C16.6842 28.5841 16.5972 28.5436 16.5597 28.5256C16.5222 28.5091 16.4787 28.4881 16.4622 28.4806C16.1427 28.3156 16.0332 28.2586 15.9102 28.1866C15.8292 28.1401 15.7452 28.0936 15.7227 28.0816C15.7002 28.0696 15.6492 28.0396 15.6072 28.0126C15.5667 27.9871 15.4992 27.9436 15.4572 27.9181C15.4167 27.8926 15.3762 27.8656 15.3672 27.8581C15.3597 27.8521 15.3417 27.8416 15.3282 27.8371C15.3072 27.8281 15.2367 27.7816 15.0057 27.6211C14.4717 27.2506 14.0187 26.8741 13.5807 26.4376C13.3107 26.1676 13.2252 26.0746 12.9867 25.7926C12.8472 25.6261 12.8607 25.6441 12.6522 25.3636C12.4692 25.1191 12.1797 24.6811 12.1797 24.6496C12.1797 24.6451 12.1662 24.6241 12.1512 24.6016C12.1257 24.5656 12.0852 24.4936 11.9442 24.2251C11.8947 24.1321 11.7087 23.7121 11.6592 23.5876C11.6472 23.5546 11.6247 23.4976 11.6097 23.4601C11.5767 23.3746 11.5377 23.2621 11.5122 23.1751C11.5017 23.1376 11.4777 23.0596 11.4612 23.0026C11.4432 22.9441 11.4222 22.8676 11.4132 22.8301C11.4042 22.7926 11.3832 22.7116 11.3682 22.6501C11.3172 22.4401 11.2197 21.8416 11.2197 21.7366C11.2197 21.7186 11.2827 21.6361 11.3742 21.5356C11.5542 21.3361 11.9247 20.9206 12.1047 20.7151C12.1752 20.6341 12.3162 20.4751 12.4182 20.3611C12.5202 20.2456 12.7032 20.0416 12.8247 19.9051C12.9462 19.7686 13.1112 19.5826 13.1922 19.4926C13.2732 19.4011 13.4307 19.2226 13.5447 19.0951C13.6572 18.9676 13.8462 18.7561 13.9632 18.6256C14.0787 18.4951 14.1747 18.3826 14.1747 18.3736C14.1747 18.3661 14.1852 18.3601 14.1972 18.3601C14.2092 18.3601 14.2197 18.3541 14.2197 18.3451C14.2197 18.3376 14.2557 18.2926 14.2992 18.2446C14.3442 18.1966 14.4327 18.0961 14.4987 18.0226C14.5632 17.9476 14.6772 17.8201 14.7522 17.7376C14.8257 17.6536 14.9877 17.4736 15.1092 17.3356C15.2307 17.1976 15.3372 17.0851 15.3462 17.0851C15.3537 17.0851 15.3597 17.0761 15.3597 17.0641C15.3597 17.0536 15.3852 17.0176 15.4167 16.9861C15.4467 16.9531 15.5742 16.8121 15.6987 16.6726C15.8232 16.5316 16.0092 16.3231 16.1112 16.2091C16.2132 16.0936 16.3542 15.9346 16.4247 15.8551C16.4952 15.7756 16.6362 15.6166 16.7382 15.5011C16.8402 15.3871 17.0232 15.1816 17.1447 15.0451C17.2662 14.9086 17.4492 14.7031 17.5512 14.5891C17.6532 14.4736 17.7942 14.3146 17.8647 14.2351C17.9352 14.1556 18.0762 13.9966 18.1782 13.8811C18.2802 13.7671 18.4632 13.5616 18.5847 13.4251C18.7062 13.2886 18.8892 13.0831 18.9912 12.9691C19.0932 12.8536 19.2342 12.6946 19.3047 12.6151C19.3752 12.5356 19.5162 12.3766 19.6182 12.2611C19.7202 12.1471 19.9032 11.9416 20.0247 11.8051C20.1462 11.6686 20.3172 11.4766 20.4057 11.3776C20.4942 11.2786 20.6547 11.0956 20.7642 10.9696C20.9112 10.8001 20.9712 10.7416 20.9967 10.7416C21.0207 10.7401 21.0537 10.7626 21.0957 10.8106Z" fill="#C1C4D0"/>
<path d="M16.0427 21.201C16.0352 21.204 15.9872 21.216 15.9377 21.2265C15.7397 21.2685 15.5627 21.414 15.4682 21.6105L15.4127 21.7275L15.4082 22.515C15.4052 23.0085 15.4097 23.3445 15.4187 23.415C15.4382 23.5575 15.4892 23.661 15.5927 23.7735C15.6812 23.868 15.7652 23.919 15.9137 23.97C16.0007 23.9985 16.0382 24 16.7987 24H17.5937L17.7137 23.961C17.7797 23.94 17.8412 23.913 17.8517 23.901C17.8607 23.889 17.8772 23.88 17.8877 23.88C17.8982 23.88 17.9507 23.8335 18.0032 23.7765C18.0737 23.7 18.1112 23.6445 18.1442 23.5635L18.1877 23.4525V22.59V21.726L18.1292 21.6075C18.0362 21.42 17.8862 21.2895 17.6927 21.228C17.6297 21.2085 17.4962 21.204 16.8377 21.201C16.4087 21.198 16.0517 21.1995 16.0427 21.201Z" fill="#C1C4D0"/>
<path d="M24.4421 21.201C24.4346 21.204 24.3866 21.216 24.3371 21.2265C24.1376 21.2685 23.9726 21.402 23.8766 21.597L23.8121 21.7245L23.8076 22.527C23.8046 23.0085 23.8091 23.367 23.8181 23.4255C23.8376 23.5545 23.8946 23.667 23.9921 23.7735C24.0806 23.868 24.1646 23.919 24.3131 23.97C24.4001 23.9985 24.4376 24 25.1981 24H25.9931L26.1131 23.961C26.1791 23.94 26.2406 23.913 26.2511 23.901C26.2601 23.889 26.2766 23.88 26.2871 23.88C26.2976 23.88 26.3501 23.8335 26.4026 23.7765C26.4731 23.7 26.5106 23.6445 26.5436 23.5635L26.5871 23.4525V22.59V21.726L26.5286 21.6075C26.4356 21.42 26.2856 21.2895 26.0921 21.228C26.0291 21.2085 25.8956 21.204 25.2371 21.201C24.8081 21.198 24.4511 21.1995 24.4421 21.201Z" fill="#C1C4D0"/>
<path d="M20.0979 24.0344C20.0439 24.0524 19.9824 24.0794 19.9599 24.0929C19.9389 24.1079 19.9149 24.1199 19.9059 24.1199C19.8774 24.1199 19.7079 24.3194 19.6719 24.3974C19.6494 24.4424 19.6254 24.5219 19.6179 24.5744C19.6089 24.6329 19.6044 24.9914 19.6074 25.4729L19.6119 26.2739L19.6704 26.3924C19.7394 26.5304 19.8414 26.6414 19.9644 26.7089C20.1189 26.7944 20.1519 26.7974 20.9994 26.7974C21.8469 26.7974 21.8799 26.7944 22.0344 26.7089C22.1574 26.6414 22.2594 26.5304 22.3284 26.3924L22.3869 26.2739L22.3914 25.4729C22.3944 24.9914 22.3899 24.6329 22.3809 24.5744C22.3734 24.5219 22.3494 24.4424 22.3269 24.3974C22.2879 24.3119 22.1199 24.1199 22.0869 24.1199C22.0764 24.1199 22.0599 24.1109 22.0509 24.0989C22.0404 24.0869 21.9789 24.0599 21.9129 24.0389L21.7929 23.9999H20.9949C20.2134 24.0014 20.1954 24.0014 20.0979 24.0344Z" fill="#C1C4D0"/>
</g>
<defs>
<clipPath id="clip0_288_449">
<rect width="118" height="40" fill="white"/>
</clipPath>
</defs>
</svg>
