<svg width="118" height="40" viewBox="0 0 118 40" fill="none" xmlns="http://www.w3.org/2000/svg">
<g clip-path="url(#clip0_288_465)">
<path d="M5.79275 18.8C5.95808 18.6347 6.13142 18.4827 6.31275 18.344C6.49942 18.2 6.69408 18.08 6.89675 17.984C7.10475 17.8827 7.32608 17.8053 7.56075 17.752C7.79542 17.6933 8.05142 17.664 8.32875 17.664C8.77675 17.664 9.17408 17.7413 9.52075 17.896C9.86742 18.0453 10.1554 18.2587 10.3848 18.536C10.6194 18.808 10.7954 19.136 10.9128 19.52C11.0354 19.8987 11.0968 20.3173 11.0968 20.776V26H9.12075V20.776C9.12075 20.2747 9.00608 19.888 8.77675 19.616C8.54742 19.3387 8.19808 19.2 7.72875 19.2C7.38742 19.2 7.06742 19.2773 6.76875 19.432C6.47008 19.5867 6.18742 19.7973 5.92075 20.064V26H3.94475V17.792H5.15275C5.40875 17.792 5.57675 17.912 5.65675 18.152L5.79275 18.8ZM16.608 17.664C17.216 17.664 17.768 17.7627 18.264 17.96C18.7653 18.1573 19.192 18.4373 19.544 18.8C19.9013 19.1627 20.176 19.6053 20.368 20.128C20.56 20.6507 20.656 21.2347 20.656 21.88C20.656 22.5307 20.56 23.1173 20.368 23.64C20.176 24.1627 19.9013 24.608 19.544 24.976C19.192 25.344 18.7653 25.6267 18.264 25.824C17.768 26.0213 17.216 26.12 16.608 26.12C15.9947 26.12 15.4373 26.0213 14.936 25.824C14.4347 25.6267 14.0053 25.344 13.648 24.976C13.296 24.608 13.0213 24.1627 12.824 23.64C12.632 23.1173 12.536 22.5307 12.536 21.88C12.536 21.2347 12.632 20.6507 12.824 20.128C13.0213 19.6053 13.296 19.1627 13.648 18.8C14.0053 18.4373 14.4347 18.1573 14.936 17.96C15.4373 17.7627 15.9947 17.664 16.608 17.664ZM16.608 24.6C17.2907 24.6 17.7947 24.3707 18.12 23.912C18.4507 23.4533 18.616 22.7813 18.616 21.896C18.616 21.0107 18.4507 20.336 18.12 19.872C17.7947 19.408 17.2907 19.176 16.608 19.176C15.9147 19.176 15.4 19.4107 15.064 19.88C14.7333 20.344 14.568 21.016 14.568 21.896C14.568 22.776 14.7333 23.448 15.064 23.912C15.4 24.3707 15.9147 24.6 16.608 24.6ZM27.9189 18.608C27.9189 18.7467 27.8949 18.8827 27.8469 19.016C27.7989 19.1493 27.7349 19.2587 27.6549 19.344L23.7589 24.48H27.7989V26H21.4629V25.176C21.4629 25.0853 21.4842 24.9787 21.5269 24.856C21.5695 24.728 21.6335 24.608 21.7189 24.496L25.6549 19.304H21.6949V17.792H27.9189V18.608ZM32.8736 17.664C33.4816 17.664 34.0336 17.7627 34.5296 17.96C35.031 18.1573 35.4576 18.4373 35.8096 18.8C36.167 19.1627 36.4416 19.6053 36.6336 20.128C36.8256 20.6507 36.9216 21.2347 36.9216 21.88C36.9216 22.5307 36.8256 23.1173 36.6336 23.64C36.4416 24.1627 36.167 24.608 35.8096 24.976C35.4576 25.344 35.031 25.6267 34.5296 25.824C34.0336 26.0213 33.4816 26.12 32.8736 26.12C32.2603 26.12 31.703 26.0213 31.2016 25.824C30.7003 25.6267 30.271 25.344 29.9136 24.976C29.5616 24.608 29.287 24.1627 29.0896 23.64C28.8976 23.1173 28.8016 22.5307 28.8016 21.88C28.8016 21.2347 28.8976 20.6507 29.0896 20.128C29.287 19.6053 29.5616 19.1627 29.9136 18.8C30.271 18.4373 30.7003 18.1573 31.2016 17.96C31.703 17.7627 32.2603 17.664 32.8736 17.664ZM32.8736 24.6C33.5563 24.6 34.0603 24.3707 34.3856 23.912C34.7163 23.4533 34.8816 22.7813 34.8816 21.896C34.8816 21.0107 34.7163 20.336 34.3856 19.872C34.0603 19.408 33.5563 19.176 32.8736 19.176C32.1803 19.176 31.6656 19.4107 31.3296 19.88C30.999 20.344 30.8336 21.016 30.8336 21.896C30.8336 22.776 30.999 23.448 31.3296 23.912C31.6656 24.3707 32.1803 24.6 32.8736 24.6ZM38.4291 26V17.792H39.6371C39.8931 17.792 40.0611 17.912 40.1411 18.152L40.2691 18.76C40.4131 18.6 40.5625 18.4533 40.7171 18.32C40.8771 18.1867 41.0451 18.072 41.2211 17.976C41.4025 17.88 41.5945 17.8053 41.7971 17.752C42.0051 17.6933 42.2318 17.664 42.4771 17.664C42.9945 17.664 43.4185 17.8053 43.7491 18.088C44.0851 18.3653 44.3358 18.736 44.5011 19.2C44.6291 18.928 44.7891 18.696 44.9811 18.504C45.1731 18.3067 45.3838 18.1467 45.6131 18.024C45.8425 17.9013 46.0851 17.8107 46.3411 17.752C46.6025 17.6933 46.8638 17.664 47.1251 17.664C47.5785 17.664 47.9811 17.7333 48.3331 17.872C48.6851 18.0107 48.9811 18.2133 49.2211 18.48C49.4611 18.7467 49.6425 19.072 49.7651 19.456C49.8931 19.84 49.9571 20.28 49.9571 20.776V26H47.9811V20.776C47.9811 20.2533 47.8665 19.8613 47.6371 19.6C47.4078 19.3333 47.0718 19.2 46.6291 19.2C46.4265 19.2 46.2371 19.2347 46.0611 19.304C45.8905 19.3733 45.7385 19.4747 45.6051 19.608C45.4771 19.736 45.3758 19.8987 45.3011 20.096C45.2265 20.2933 45.1891 20.52 45.1891 20.776V26H43.2051V20.776C43.2051 20.2267 43.0931 19.8267 42.8691 19.576C42.6505 19.3253 42.3278 19.2 41.9011 19.2C41.6131 19.2 41.3438 19.272 41.0931 19.416C40.8478 19.5547 40.6185 19.7467 40.4051 19.992V26H38.4291ZM57.6034 19.752C57.2994 19.2933 56.9607 18.9707 56.5874 18.784C56.2194 18.5973 55.798 18.504 55.3234 18.504C54.854 18.504 54.4434 18.5893 54.0914 18.76C53.7394 18.9307 53.4434 19.1733 53.2034 19.488C52.9687 19.7973 52.79 20.1707 52.6674 20.608C52.55 21.04 52.4914 21.5173 52.4914 22.04C52.4914 23.224 52.7074 24.096 53.1394 24.656C53.5767 25.2107 54.206 25.488 55.0274 25.488C55.55 25.488 56.0274 25.352 56.4594 25.08C56.8914 24.808 57.2727 24.4267 57.6034 23.936V19.752ZM58.3634 14.36V26H57.9474C57.8087 26 57.7287 25.9307 57.7074 25.792L57.6274 24.536C57.2754 25.016 56.8647 25.3973 56.3954 25.68C55.926 25.9627 55.398 26.104 54.8114 26.104C53.83 26.104 53.0674 25.7653 52.5234 25.088C51.9794 24.4107 51.7074 23.3947 51.7074 22.04C51.7074 21.4587 51.782 20.9173 51.9314 20.416C52.086 19.9093 52.31 19.472 52.6034 19.104C52.8967 18.7307 53.2567 18.4373 53.6834 18.224C54.1154 18.0107 54.6114 17.904 55.1714 17.904C55.71 17.904 56.1767 18.0027 56.5714 18.2C56.966 18.3973 57.31 18.6907 57.6034 19.08V14.36H58.3634ZM67.4159 18.04L62.8399 28.56C62.8079 28.6347 62.7652 28.696 62.7119 28.744C62.6639 28.792 62.5919 28.816 62.4959 28.816H61.9519L63.3519 25.704L59.9839 18.04H60.6159C60.6959 18.04 60.7599 18.0613 60.8079 18.104C60.8559 18.1413 60.8879 18.184 60.9039 18.232L63.5839 24.424C63.6159 24.504 63.6425 24.5867 63.6639 24.672C63.6905 24.752 63.7145 24.8347 63.7359 24.92C63.7625 24.8347 63.7892 24.752 63.8159 24.672C63.8479 24.5867 63.8799 24.504 63.9119 24.424L66.5599 18.232C66.5865 18.1733 66.6239 18.128 66.6719 18.096C66.7199 18.0587 66.7732 18.04 66.8319 18.04H67.4159ZM69.7431 19.432C70.1111 18.9733 70.5351 18.6053 71.0151 18.328C71.5005 18.0507 72.0391 17.912 72.6311 17.912C73.0685 17.912 73.4525 17.9813 73.7831 18.12C74.1191 18.2587 74.3965 18.4587 74.6151 18.72C74.8338 18.9813 74.9991 19.296 75.1111 19.664C75.2231 20.032 75.2791 20.448 75.2791 20.912V26H74.5111V20.912C74.5111 20.1653 74.3405 19.5813 73.9991 19.16C73.6578 18.7333 73.1378 18.52 72.4391 18.52C71.9218 18.52 71.4365 18.6533 70.9831 18.92C70.5351 19.1813 70.1351 19.5467 69.7831 20.016V26H69.0151V18.04H69.4391C69.5725 18.04 69.6498 18.1067 69.6711 18.24L69.7431 19.432ZM82.268 22.152C81.5107 22.1787 80.8573 22.24 80.308 22.336C79.764 22.4267 79.3133 22.552 78.956 22.712C78.604 22.872 78.3427 23.064 78.172 23.288C78.0013 23.5067 77.916 23.7573 77.916 24.04C77.916 24.3067 77.9587 24.5387 78.044 24.736C78.1347 24.928 78.252 25.088 78.396 25.216C78.5453 25.3387 78.716 25.4293 78.908 25.488C79.1 25.5467 79.3 25.576 79.508 25.576C79.8173 25.576 80.1 25.544 80.356 25.48C80.6173 25.4107 80.8573 25.3173 81.076 25.2C81.3 25.0773 81.508 24.9333 81.7 24.768C81.892 24.6027 82.0813 24.424 82.268 24.232V22.152ZM77.588 19.168C78.004 18.752 78.4413 18.4373 78.9 18.224C79.3587 18.0107 79.8787 17.904 80.46 17.904C80.8867 17.904 81.26 17.9733 81.58 18.112C81.9 18.2453 82.164 18.44 82.372 18.696C82.5853 18.9467 82.7453 19.2533 82.852 19.616C82.9587 19.9733 83.012 20.3733 83.012 20.816V26H82.708C82.548 26 82.4493 25.9253 82.412 25.776L82.3 24.752C82.0813 24.9653 81.8627 25.1573 81.644 25.328C81.4307 25.4987 81.2067 25.6427 80.972 25.76C80.7373 25.8773 80.484 25.968 80.212 26.032C79.94 26.096 79.6413 26.128 79.316 26.128C79.044 26.128 78.78 26.088 78.524 26.008C78.268 25.928 78.0387 25.8053 77.836 25.64C77.6387 25.4747 77.4787 25.264 77.356 25.008C77.2387 24.7467 77.18 24.4347 77.18 24.072C77.18 23.736 77.276 23.424 77.468 23.136C77.66 22.848 77.9613 22.5973 78.372 22.384C78.7827 22.1707 79.308 22 79.948 21.872C80.5933 21.744 81.3667 21.6693 82.268 21.648V20.816C82.268 20.08 82.108 19.5147 81.788 19.12C81.4733 18.72 81.004 18.52 80.38 18.52C79.996 18.52 79.668 18.5733 79.396 18.68C79.1293 18.7867 78.9027 18.904 78.716 19.032C78.5293 19.16 78.3773 19.2773 78.26 19.384C78.1427 19.4907 78.044 19.544 77.964 19.544C77.9053 19.544 77.8573 19.5307 77.82 19.504C77.7827 19.4773 77.7507 19.4427 77.724 19.4L77.588 19.168ZM85.562 26V18.04H85.986C86.1193 18.04 86.1967 18.1067 86.218 18.24L86.29 19.392C86.5993 18.9493 86.954 18.592 87.354 18.32C87.754 18.048 88.2047 17.912 88.706 17.912C89.2873 17.912 89.7513 18.08 90.098 18.416C90.45 18.752 90.6873 19.2187 90.81 19.816C90.906 19.4907 91.0393 19.208 91.21 18.968C91.386 18.728 91.586 18.5307 91.81 18.376C92.034 18.216 92.2767 18.0987 92.538 18.024C92.8047 17.9493 93.0767 17.912 93.354 17.912C93.7487 17.912 94.1033 17.9787 94.418 18.112C94.7327 18.24 94.9993 18.432 95.218 18.688C95.4367 18.944 95.6047 19.2587 95.722 19.632C95.8393 20.0053 95.898 20.432 95.898 20.912V26H95.138V20.912C95.138 20.1333 94.97 19.5413 94.634 19.136C94.298 18.7253 93.818 18.52 93.194 18.52C92.9167 18.52 92.65 18.5707 92.394 18.672C92.1433 18.7733 91.9193 18.9253 91.722 19.128C91.53 19.3253 91.3753 19.5733 91.258 19.872C91.146 20.1707 91.09 20.5173 91.09 20.912V26H90.322V20.912C90.322 20.1387 90.1673 19.5467 89.858 19.136C89.554 18.7253 89.106 18.52 88.514 18.52C88.082 18.52 87.682 18.648 87.314 18.904C86.946 19.16 86.618 19.5147 86.33 19.968V26H85.562ZM99.285 18.04V26H98.525V18.04H99.285ZM99.613 15.296C99.613 15.392 99.5917 15.4827 99.549 15.568C99.5117 15.648 99.461 15.72 99.397 15.784C99.333 15.848 99.2583 15.8987 99.173 15.936C99.0877 15.9733 98.997 15.992 98.901 15.992C98.805 15.992 98.7143 15.9733 98.629 15.936C98.5437 15.8987 98.469 15.848 98.405 15.784C98.341 15.72 98.2903 15.648 98.253 15.568C98.2157 15.4827 98.197 15.392 98.197 15.296C98.197 15.2 98.2157 15.1093 98.253 15.024C98.2903 14.9333 98.341 14.856 98.405 14.792C98.469 14.728 98.5437 14.6773 98.629 14.64C98.7143 14.6027 98.805 14.584 98.901 14.584C98.997 14.584 99.0877 14.6027 99.173 14.64C99.2583 14.6773 99.333 14.728 99.397 14.792C99.461 14.856 99.5117 14.9333 99.549 15.024C99.5917 15.1093 99.613 15.2 99.613 15.296ZM107.352 19.104C107.325 19.1307 107.298 19.1547 107.272 19.176C107.25 19.192 107.218 19.2 107.176 19.2C107.122 19.2 107.05 19.1653 106.96 19.096C106.869 19.0213 106.746 18.9413 106.592 18.856C106.437 18.7707 106.242 18.6933 106.008 18.624C105.778 18.5493 105.498 18.512 105.168 18.512C104.709 18.512 104.301 18.5947 103.944 18.76C103.592 18.92 103.293 19.152 103.048 19.456C102.802 19.76 102.616 20.128 102.488 20.56C102.365 20.992 102.304 21.4773 102.304 22.016C102.304 22.576 102.368 23.072 102.496 23.504C102.629 23.936 102.816 24.3013 103.056 24.6C103.296 24.8933 103.586 25.1173 103.928 25.272C104.269 25.4267 104.648 25.504 105.064 25.504C105.448 25.504 105.768 25.4587 106.024 25.368C106.285 25.2773 106.498 25.1787 106.664 25.072C106.834 24.9653 106.968 24.8667 107.064 24.776C107.16 24.6853 107.24 24.64 107.304 24.64C107.368 24.64 107.421 24.6667 107.464 24.72L107.664 24.976C107.541 25.136 107.386 25.2853 107.2 25.424C107.013 25.5627 106.802 25.6827 106.568 25.784C106.333 25.8853 106.077 25.9627 105.8 26.016C105.528 26.0747 105.242 26.104 104.944 26.104C104.437 26.104 103.973 26.0133 103.552 25.832C103.136 25.6453 102.776 25.3787 102.472 25.032C102.173 24.68 101.938 24.2507 101.768 23.744C101.602 23.2373 101.52 22.6613 101.52 22.016C101.52 21.408 101.6 20.8533 101.76 20.352C101.92 19.8507 102.154 19.4187 102.464 19.056C102.773 18.6933 103.149 18.4133 103.592 18.216C104.04 18.0133 104.552 17.912 105.128 17.912C105.645 17.912 106.104 17.9947 106.504 18.16C106.904 18.3253 107.253 18.5493 107.552 18.832L107.352 19.104ZM113.922 19.024C113.88 19.0987 113.818 19.136 113.738 19.136C113.68 19.136 113.605 19.104 113.514 19.04C113.424 18.9707 113.301 18.896 113.146 18.816C112.997 18.7307 112.81 18.656 112.586 18.592C112.362 18.5227 112.09 18.488 111.77 18.488C111.482 18.488 111.218 18.5307 110.978 18.616C110.744 18.696 110.541 18.8053 110.37 18.944C110.205 19.0827 110.077 19.2453 109.986 19.432C109.896 19.6133 109.85 19.8053 109.85 20.008C109.85 20.2587 109.914 20.4667 110.042 20.632C110.17 20.7973 110.336 20.9387 110.538 21.056C110.746 21.1733 110.984 21.2747 111.25 21.36C111.517 21.4453 111.786 21.5307 112.058 21.616C112.336 21.7013 112.608 21.7973 112.874 21.904C113.141 22.0053 113.376 22.1333 113.578 22.288C113.786 22.4427 113.954 22.632 114.082 22.856C114.21 23.08 114.274 23.352 114.274 23.672C114.274 24.0187 114.213 24.3413 114.09 24.64C113.968 24.9387 113.786 25.1973 113.546 25.416C113.312 25.6347 113.021 25.808 112.674 25.936C112.328 26.064 111.93 26.128 111.482 26.128C110.922 26.128 110.44 26.04 110.034 25.864C109.629 25.6827 109.266 25.448 108.946 25.16L109.122 24.888C109.149 24.8453 109.178 24.8133 109.21 24.792C109.248 24.7707 109.296 24.76 109.354 24.76C109.424 24.76 109.506 24.8027 109.602 24.888C109.704 24.9733 109.837 25.0667 110.002 25.168C110.168 25.264 110.37 25.3547 110.61 25.44C110.856 25.5253 111.157 25.568 111.514 25.568C111.85 25.568 112.146 25.5227 112.402 25.432C112.658 25.336 112.872 25.208 113.042 25.048C113.213 24.888 113.341 24.7013 113.426 24.488C113.517 24.2693 113.562 24.04 113.562 23.8C113.562 23.5333 113.498 23.312 113.37 23.136C113.242 22.96 113.074 22.8107 112.866 22.688C112.658 22.5653 112.421 22.4613 112.154 22.376C111.893 22.2907 111.624 22.2053 111.346 22.12C111.069 22.0347 110.797 21.9413 110.53 21.84C110.269 21.7387 110.034 21.6107 109.826 21.456C109.618 21.3013 109.45 21.1147 109.322 20.896C109.194 20.672 109.13 20.3947 109.13 20.064C109.13 19.7813 109.192 19.5093 109.314 19.248C109.437 18.9867 109.61 18.7573 109.834 18.56C110.064 18.3627 110.341 18.2053 110.666 18.088C110.992 17.9707 111.357 17.912 111.762 17.912C112.248 17.912 112.677 17.9813 113.05 18.12C113.429 18.2587 113.773 18.472 114.082 18.76L113.922 19.024Z" fill="#C1C4D0"/>
</g>
<defs>
<clipPath id="clip0_288_465">
<rect width="118" height="40" fill="white"/>
</clipPath>
</defs>
</svg>
