<svg width="118" height="40" viewBox="0 0 118 40" fill="none" xmlns="http://www.w3.org/2000/svg">
<g clip-path="url(#clip0_288_473)">
<g clip-path="url(#clip1_288_473)">
<path fill-rule="evenodd" clip-rule="evenodd" d="M34.1909 10.4386C34.1368 10.4808 34.1168 10.5403 34.131 10.6171C34.2706 10.6171 34.4103 10.6171 34.5499 10.6171C34.999 10.6549 35.3781 10.8433 35.6869 11.1821C35.8407 11.2355 35.9803 11.3049 36.1058 11.3903C36.0876 11.429 36.0677 11.4686 36.046 11.5093C36.2821 11.5682 36.5214 11.588 36.7641 11.5687C36.7641 11.5885 36.7641 11.6084 36.7641 11.6282C36.6086 11.7572 36.4291 11.8464 36.2255 11.8959C36.3013 11.9143 36.3711 11.944 36.435 11.9851C36.6476 11.8984 36.8571 11.819 37.0633 11.7472C37.2425 11.6569 37.3123 11.7164 37.2728 11.9256C37.1592 12.0158 37.0296 12.0555 36.8838 12.0446C36.7387 12.0263 36.5991 12.0461 36.4649 12.1041C36.4723 12.1402 36.4922 12.16 36.5247 12.1635C36.5749 12.1839 36.5949 12.2235 36.5846 12.2825C36.5305 12.3247 36.5105 12.3841 36.5247 12.4609C36.6779 12.4789 36.8175 12.459 36.9436 12.4014C37.0202 12.3163 37.12 12.2767 37.2428 12.2825C37.3219 12.2724 37.3918 12.2922 37.4523 12.342C37.4952 12.3096 37.5251 12.2699 37.5421 12.223C37.6574 12.1056 37.797 12.0164 37.9609 11.9554C38.0341 11.7802 38.1438 11.6315 38.2901 11.5093C38.3366 11.3496 38.4164 11.2108 38.5295 11.0929C38.561 10.8431 38.6109 10.6052 38.6791 10.3791C38.7479 10.0927 38.7578 9.79529 38.709 9.48695C38.6379 9.55018 38.608 9.62952 38.6192 9.72487C38.3295 10.7065 37.6712 11.2616 36.6444 11.3903C36.5487 11.4062 36.469 11.3864 36.405 11.3308C37.0214 11.1583 37.55 10.8411 37.9909 10.3791C38.2467 9.93346 38.4561 9.4675 38.6192 8.98137C38.7867 8.94801 38.8963 9.01742 38.9483 9.18955C39.2441 10.7319 38.7155 11.8718 37.3625 12.6096C37.1263 12.6783 36.887 12.7278 36.6444 12.7583C36.7584 13.1813 36.7983 13.6076 36.7641 14.0371C36.7132 15.1539 37.0224 16.1551 37.6917 17.0409C38.1618 18.4168 37.6731 19.0413 36.2255 18.9145C35.7786 18.6855 35.3198 18.6558 34.8491 18.8252C34.1118 18.7991 33.4535 18.5612 32.8743 18.1115C32.1703 19.7491 31.3425 21.3155 30.3909 22.8104C30.4486 23.5211 30.5084 24.2348 30.5704 24.9516C30.7664 25.2852 30.9859 25.6025 31.2287 25.9033C31.3416 26.2927 31.4215 26.6893 31.468 27.0929C31.6616 27.451 31.8212 27.8277 31.9468 28.223C32.0602 28.7392 31.8708 29.0862 31.3783 29.2639C31.099 29.3036 30.8198 29.3036 30.5405 29.2639C30.3007 28.9174 30.171 28.5308 30.1515 28.1041C29.8814 27.9943 29.692 27.8059 29.583 27.539C29.6734 26.6696 29.5138 25.8467 29.1043 25.0706C29.1007 25.0383 29.0807 25.0185 29.0444 25.0111C28.9661 25.2579 28.9661 25.4958 29.0444 25.7249C29.1519 26.0572 29.0921 26.3645 28.8649 26.6468C27.7686 27.1024 26.8311 27.7765 26.0523 28.6691C25.9701 28.7212 25.8804 28.7509 25.783 28.7583C25.5239 28.6742 25.2745 28.5652 25.035 28.4312C24.6459 28.3906 24.2669 28.3113 23.898 28.1933C23.5095 27.8197 23.4995 27.4331 23.868 27.0334C24.252 26.6749 24.7108 26.4964 25.2444 26.4981C26.7173 26.8689 27.4454 26.294 27.4287 24.7732C27.3874 24.6576 27.3575 24.5386 27.3389 24.4163C27.309 24.3469 27.2591 24.2974 27.1893 24.2676C26.9898 24.2478 26.7903 24.2279 26.5909 24.2081C26.1764 23.8636 25.6977 23.6851 25.1546 23.6728C24.3746 23.673 23.5966 23.7225 22.8208 23.8215C22.6894 23.8212 22.5697 23.8014 22.4617 23.762C22.3896 23.6915 22.3098 23.6915 22.2224 23.762C21.7258 23.6875 21.2271 23.628 20.7263 23.5836C20.2076 23.7125 19.6891 23.8413 19.1704 23.9702C18.9668 24.0535 18.7972 24.1824 18.6617 24.3568C18.5737 24.5996 18.4739 24.8375 18.3625 25.0706C18.1907 25.2215 18.041 25.39 17.9137 25.5762C17.4801 25.9085 17.0313 26.2158 16.5672 26.4981C16.4164 26.6675 16.3965 26.8459 16.5074 27.0334C16.9263 27.6282 17.3452 28.223 17.7641 28.8178C17.9373 28.988 18.1268 29.1367 18.3326 29.2639C18.6558 29.5263 18.8752 29.8535 18.9909 30.2453C18.9267 30.4774 18.7871 30.646 18.572 30.7509C17.8908 30.9425 17.2126 30.9425 16.5373 30.7509C16.3368 30.526 16.2969 30.2683 16.4176 29.9777C16.4151 29.8607 16.3852 29.7516 16.3279 29.6505C16.1351 29.4787 15.9256 29.33 15.6995 29.2044C15.1037 28.6517 14.5951 28.0272 14.1735 27.3308C14.1064 27.2174 14.0566 27.0984 14.0239 26.9739C14.036 26.8282 14.0161 26.6894 13.9641 26.5576C13.9545 26.4565 13.9645 26.3574 13.994 26.2602C14.1636 25.9229 14.363 25.6057 14.5924 25.3085C15.172 24.22 14.8428 23.6649 13.605 23.6431C13.3034 23.723 13.0042 23.8122 12.7074 23.9107C12.0214 24.2752 11.4031 24.7312 10.8523 25.2788C10.3883 25.6088 9.86962 25.7575 9.29638 25.7249C9.19592 25.7121 9.13608 25.7518 9.11685 25.8438C8.86811 26.2178 8.65866 26.6144 8.48851 27.0334C8.45269 27.3023 8.46267 27.5699 8.51843 27.8364C8.42002 28.1396 8.34022 28.4469 8.27906 28.7583C8.28903 28.8575 8.299 28.9566 8.30898 29.0557C8.44742 29.4002 8.57708 29.7471 8.69796 30.0966C8.67952 30.4519 8.49002 30.6204 8.12945 30.6022C7.66531 30.6021 7.19654 30.5922 6.72315 30.5725C6.39897 30.4583 6.21944 30.2303 6.18457 29.8884C6.31543 29.409 6.41516 28.9233 6.48378 28.4312C6.44753 27.9716 6.38769 27.5156 6.30426 27.0632C6.34178 26.9362 6.3717 26.8073 6.39402 26.6765C6.67163 26.2228 6.97084 25.7866 7.29166 25.368C7.41305 24.897 7.51279 24.4211 7.59087 23.9405C7.79381 23.7252 8.04315 23.5765 8.3389 23.4944C8.47109 23.383 8.5808 23.2541 8.66803 23.1078C8.80725 21.3047 9.24609 19.5798 9.98457 17.933C10.744 16.5439 11.8511 15.5228 13.3058 14.8698C13.9351 14.6516 14.5834 14.5426 15.2507 14.5427C15.9725 14.6045 16.6906 14.6442 17.405 14.6617C18.0423 14.6284 18.6707 14.5391 19.2901 14.394C20.5603 13.8319 21.7971 13.2173 23.0003 12.5501C25.7874 11.3299 28.6998 10.8144 31.7373 11.0037C32.4765 10.5857 33.1447 10.0801 33.7421 9.48695C33.8902 9.1842 34.0498 8.8868 34.2208 8.59476C34.4014 8.31134 34.6009 8.29153 34.8192 8.53528C34.8691 8.63443 34.919 8.73352 34.9688 8.83267C34.8192 9.42729 34.5599 9.96261 34.1909 10.4386Z" fill="#C1C4D0"/>
<path fill-rule="evenodd" clip-rule="evenodd" d="M33.6518 10.4983C33.6124 10.4449 33.5725 10.3855 33.5321 10.3199C33.4772 10.3572 33.4173 10.3771 33.3525 10.3794C33.6113 10.0925 33.8806 9.81486 34.1604 9.54667C34.2912 9.29602 34.4109 9.0383 34.5195 8.77344C34.5214 9.02575 34.4615 9.26367 34.3399 9.48719C34.1674 9.86608 33.938 10.2031 33.6518 10.4983Z" fill="#C1D6EC"/>
<path fill-rule="evenodd" clip-rule="evenodd" d="M38.6784 10.379C38.6972 10.1488 38.6773 9.93065 38.6185 9.72473C38.6073 9.62939 38.6372 9.55004 38.7083 9.48682C38.7571 9.79516 38.7472 10.0926 38.6784 10.379Z" fill="#6D6D6D"/>
<path fill-rule="evenodd" clip-rule="evenodd" d="M34.1902 10.4385C34.2893 10.5313 34.409 10.5907 34.5493 10.6169C34.4097 10.6169 34.27 10.6169 34.1304 10.6169C34.1162 10.5401 34.1361 10.4806 34.1902 10.4385Z" fill="#6F6F6F"/>
<path fill-rule="evenodd" clip-rule="evenodd" d="M33.6516 10.4983C33.291 11.0844 32.8024 11.5405 32.1854 11.8663C32.1626 11.689 32.2424 11.57 32.4248 11.5094C32.5905 11.2438 32.5207 11.0951 32.2154 11.0633C32.6045 10.8437 32.9835 10.6156 33.3524 10.3793C33.4172 10.377 33.477 10.3571 33.5319 10.3198C33.5724 10.3854 33.6122 10.4449 33.6516 10.4983Z" fill="#CDDBE6"/>
<path fill-rule="evenodd" clip-rule="evenodd" d="M31.9761 11.1526C32.0391 11.1437 32.0989 11.1536 32.1557 11.1823C32.0626 11.259 31.9629 11.2986 31.8564 11.3013C31.9092 11.2591 31.949 11.2095 31.9761 11.1526Z" fill="#A5B3D2"/>
<path fill-rule="evenodd" clip-rule="evenodd" d="M36.4046 11.3311C36.4685 11.3866 36.5483 11.4065 36.6439 11.3905C36.5521 11.4671 36.4524 11.4671 36.3447 11.3905C36.3521 11.3544 36.3721 11.3346 36.4046 11.3311Z" fill="#838383"/>
<path fill-rule="evenodd" clip-rule="evenodd" d="M36.1057 11.3901C36.3177 11.4798 36.5371 11.5393 36.764 11.5686C36.5213 11.5878 36.282 11.568 36.0459 11.5091C36.0676 11.4685 36.0875 11.4288 36.1057 11.3901Z" fill="#777777"/>
<path fill-rule="evenodd" clip-rule="evenodd" d="M36.7642 11.6284C36.8271 11.7329 36.9269 11.7725 37.0634 11.7474C36.8572 11.8192 36.6477 11.8986 36.435 11.9853C36.3712 11.9442 36.3013 11.9145 36.2256 11.8961C36.4292 11.8466 36.6087 11.7574 36.7642 11.6284Z" fill="#767676"/>
<path fill-rule="evenodd" clip-rule="evenodd" d="M36.8837 12.0447C36.7641 12.0844 36.6444 12.124 36.5247 12.1636C36.4922 12.1601 36.4723 12.1403 36.4648 12.1042C36.5991 12.0462 36.7387 12.0264 36.8837 12.0447Z" fill="#6D6D6D"/>
<path fill-rule="evenodd" clip-rule="evenodd" d="M37.2422 12.2826C37.3271 12.226 37.4268 12.2062 37.5414 12.2231C37.5245 12.27 37.4945 12.3097 37.4516 12.3421C37.3911 12.2923 37.3213 12.2725 37.2422 12.2826Z" fill="#707070"/>
<path fill-rule="evenodd" clip-rule="evenodd" d="M36.5838 12.2827C36.6687 12.3903 36.7883 12.4299 36.9429 12.4017C36.8168 12.4593 36.6771 12.4791 36.524 12.4612C36.5098 12.3844 36.5297 12.3249 36.5838 12.2827Z" fill="#6B6B6B"/>
<path fill-rule="evenodd" clip-rule="evenodd" d="M28.4454 12.342C28.626 12.3322 28.8055 12.3422 28.984 12.3718C29.0973 12.436 29.1172 12.5153 29.0438 12.6097C27.0014 13.1788 25.1064 14.0512 23.3588 15.2268C23.2664 15.2974 23.1666 15.3172 23.0596 15.2863C24.0944 14.6158 25.1316 13.9417 26.1714 13.264C26.9103 12.8908 27.6683 12.5835 28.4454 12.342Z" fill="#D0DFEE"/>
<path fill-rule="evenodd" clip-rule="evenodd" d="M31.557 13.1746C31.6166 13.1695 31.6665 13.1894 31.7066 13.2341C31.7665 13.6703 31.8263 14.1065 31.8861 14.5426C32.0274 14.9877 32.167 15.4239 32.305 15.8512C31.7447 15.043 31.4954 14.1509 31.557 13.1746Z" fill="#CCE5F5"/>
<path fill-rule="evenodd" clip-rule="evenodd" d="M30.8391 15.0187C30.789 15.039 30.769 15.0786 30.7793 15.1376C30.7122 15.0296 30.6823 14.9107 30.6895 14.7808C30.7551 14.8517 30.8049 14.9311 30.8391 15.0187Z" fill="#4F6269"/>
<path fill-rule="evenodd" clip-rule="evenodd" d="M30.8398 15.0186C30.872 15.1147 30.8919 15.2139 30.8997 15.316C30.8457 15.269 30.8058 15.2095 30.78 15.1375C30.7697 15.0785 30.7897 15.0389 30.8398 15.0186Z" fill="#B4D7DD"/>
<path fill-rule="evenodd" clip-rule="evenodd" d="M30.8995 15.3159C30.9944 15.3458 31.0243 15.4053 30.9893 15.4944C30.9271 15.4501 30.8972 15.3906 30.8995 15.3159Z" fill="#7B929D"/>
<path fill-rule="evenodd" clip-rule="evenodd" d="M22.4019 15.7324C22.362 15.7324 22.3221 15.7324 22.2822 15.7324C22.4884 15.6 22.7078 15.481 22.9405 15.3755C23.0121 15.3961 23.0121 15.4258 22.9405 15.4647C22.7594 15.5547 22.5798 15.6439 22.4019 15.7324Z" fill="#A5C2D9"/>
<path fill-rule="evenodd" clip-rule="evenodd" d="M22.282 15.7324C22.3219 15.7324 22.3618 15.7324 22.4017 15.7324C22.1823 15.8761 21.9429 15.9653 21.6836 16.0001C21.8728 15.8815 22.0722 15.7923 22.282 15.7324Z" fill="#4E606A"/>
<path fill-rule="evenodd" clip-rule="evenodd" d="M11.0911 17.3977C11.2016 17.3812 11.2814 17.4208 11.3305 17.5167C11.0137 17.968 10.7444 18.4439 10.5226 18.9442C10.4364 18.8591 10.4164 18.76 10.4627 18.6468C10.6216 18.201 10.8311 17.7846 11.0911 17.3977Z" fill="#C5E0E9"/>
<path fill-rule="evenodd" clip-rule="evenodd" d="M12.4082 17.3979C12.5185 17.4398 12.5484 17.5191 12.4979 17.6359C12.336 17.7769 12.1964 17.9355 12.079 18.1117C11.9243 18.4623 11.7248 18.7795 11.4806 19.0634C11.3233 19.6131 11.1338 20.1485 10.9121 20.6693C11.036 19.8149 11.3253 19.002 11.7798 18.2307C12.0044 17.9619 12.2138 17.6844 12.4082 17.3979Z" fill="#C7DFEE"/>
<path fill-rule="evenodd" clip-rule="evenodd" d="M23.4785 21.8588C24.5123 21.526 25.5296 21.1394 26.5305 20.699C26.647 20.64 26.7667 20.6201 26.8895 20.6395C25.8248 21.2365 24.6878 21.6429 23.4785 21.8588Z" fill="#C4DAEF"/>
<path fill-rule="evenodd" clip-rule="evenodd" d="M25.9319 21.7397C26.0117 21.7397 26.0915 21.7397 26.1713 21.7397C26.1868 21.917 26.107 22.026 25.9319 22.0669C25.495 22.2746 25.0362 22.4035 24.5555 22.4535C24.524 22.2567 24.6038 22.1279 24.7949 22.0669C25.1914 21.982 25.5704 21.873 25.9319 21.7397Z" fill="#CFE0F2"/>
<path fill-rule="evenodd" clip-rule="evenodd" d="M23.4789 21.8589C23.157 21.9655 22.818 22.025 22.4616 22.0373C22.3365 22.033 22.2168 22.0132 22.1025 21.9778C22.5514 21.9246 23.0102 21.8849 23.4789 21.8589Z" fill="#CFE3F8"/>
<path fill-rule="evenodd" clip-rule="evenodd" d="M22.1019 21.9777C22.0101 22.0543 21.9104 22.0543 21.8027 21.9777C21.8982 21.9221 21.9979 21.9221 22.1019 21.9777Z" fill="#C3DCE8"/>
<path fill-rule="evenodd" clip-rule="evenodd" d="M18.2728 23.5835C18.1656 23.5915 18.0659 23.5717 17.9736 23.524C18.0044 23.1211 18.0742 22.7246 18.1831 22.3345C18.2495 22.243 18.3393 22.2034 18.4524 22.2155C18.5057 22.6837 18.4459 23.1397 18.2728 23.5835Z" fill="#D8EFF4"/>
<path fill-rule="evenodd" clip-rule="evenodd" d="M22.461 23.7619C22.3692 23.8127 22.2894 23.8127 22.2217 23.7619C22.3091 23.6913 22.3889 23.6913 22.461 23.7619Z" fill="#949494"/>
<path fill-rule="evenodd" clip-rule="evenodd" d="M17.9728 23.5239C18.065 23.5716 18.1647 23.5914 18.272 23.5834C18.0589 23.9515 17.8296 24.3083 17.5838 24.654C17.3926 24.8538 17.1632 24.9925 16.8956 25.0704C16.8345 25.0405 16.8245 25.0009 16.8657 24.9514C17.4058 24.6034 17.7748 24.1276 17.9728 23.5239Z" fill="#CCDAE9"/>
<path fill-rule="evenodd" clip-rule="evenodd" d="M29.1039 25.0707C29.0452 25.2766 29.0253 25.4947 29.0441 25.725C28.9658 25.4959 28.9658 25.258 29.0441 25.0112C29.0804 25.0186 29.1004 25.0384 29.1039 25.0707Z" fill="#6C6C6C"/>
<path fill-rule="evenodd" clip-rule="evenodd" d="M9.29574 25.725C9.24843 25.7786 9.18859 25.8183 9.11621 25.844C9.13543 25.7519 9.19527 25.7122 9.29574 25.725Z" fill="#6D6D6D"/>
<path fill-rule="evenodd" clip-rule="evenodd" d="M8.39837 25.3086C8.4641 25.3741 8.47408 25.4534 8.4283 25.5465C8.19216 25.7812 7.95279 26.0191 7.71019 26.2603C7.5506 26.5775 7.39103 26.8947 7.23145 27.2119C7.30741 26.4265 7.68641 25.8317 8.36845 25.4276C8.39624 25.3922 8.40621 25.3525 8.39837 25.3086Z" fill="#C1DEEE"/>
<path fill-rule="evenodd" clip-rule="evenodd" d="M13.9641 26.5576C14.0161 26.6895 14.0361 26.8282 14.024 26.974C13.9771 26.8644 13.9372 26.7454 13.9043 26.6171C13.9117 26.581 13.9316 26.5612 13.9641 26.5576Z" fill="#7C7C7C"/>
</g>
<path d="M55.8409 12.6V27H54.6509C54.4709 27 54.3176 26.97 54.1909 26.91C54.0643 26.8433 53.9443 26.7367 53.8309 26.59L45.9209 16.43C45.9409 16.6233 45.9543 16.8167 45.9609 17.01C45.9743 17.1967 45.9809 17.37 45.9809 17.53V27H43.9209V12.6H45.1409C45.2409 12.6 45.3243 12.6067 45.3909 12.62C45.4643 12.6267 45.5309 12.6433 45.5909 12.67C45.6509 12.6967 45.7076 12.7367 45.7609 12.79C45.8143 12.8433 45.8709 12.91 45.9309 12.99L53.8509 23.16C53.8309 22.9533 53.8143 22.75 53.8009 22.55C53.7943 22.35 53.7909 22.1633 53.7909 21.99V12.6H55.8409ZM68.2625 25.11L68.2525 27H59.2725V12.6H68.2525V14.49H61.6225V18.83H66.9225V20.66H61.6225V25.11H68.2625ZM84.0134 19.8C84.0134 20.8667 83.8401 21.85 83.4934 22.75C83.1468 23.65 82.6568 24.4267 82.0234 25.08C81.3968 25.7267 80.6401 26.2333 79.7534 26.6C78.8734 26.9667 77.8934 27.15 76.8134 27.15C75.7401 27.15 74.7601 26.9667 73.8734 26.6C72.9934 26.2333 72.2368 25.7267 71.6034 25.08C70.9701 24.4267 70.4801 23.65 70.1334 22.75C69.7868 21.85 69.6134 20.8667 69.6134 19.8C69.6134 18.7333 69.7868 17.75 70.1334 16.85C70.4801 15.95 70.9701 15.1733 71.6034 14.52C72.2368 13.8667 72.9934 13.3567 73.8734 12.99C74.7601 12.6233 75.7401 12.44 76.8134 12.44C77.8934 12.44 78.8734 12.6233 79.7534 12.99C80.6401 13.3567 81.3968 13.8667 82.0234 14.52C82.6568 15.1733 83.1468 15.95 83.4934 16.85C83.8401 17.75 84.0134 18.7333 84.0134 19.8ZM81.6234 19.8C81.6234 18.9733 81.5101 18.23 81.2834 17.57C81.0634 16.91 80.7434 16.35 80.3234 15.89C79.9101 15.43 79.4068 15.0767 78.8134 14.83C78.2201 14.5833 77.5534 14.46 76.8134 14.46C76.0801 14.46 75.4168 14.5833 74.8234 14.83C74.2301 15.0767 73.7234 15.43 73.3034 15.89C72.8834 16.35 72.5601 16.91 72.3334 17.57C72.1068 18.23 71.9934 18.9733 71.9934 19.8C71.9934 20.6333 72.1068 21.38 72.3334 22.04C72.5601 22.7 72.8834 23.26 73.3034 23.72C73.7234 24.1733 74.2301 24.5233 74.8234 24.77C75.4168 25.01 76.0801 25.13 76.8134 25.13C77.5534 25.13 78.2201 25.01 78.8134 24.77C79.4068 24.5233 79.9101 24.1733 80.3234 23.72C80.7434 23.26 81.0634 22.7 81.2834 22.04C81.5101 21.38 81.6234 20.6333 81.6234 19.8ZM89.4072 14.84V18.85H94.6272V21.21H89.4072V27H86.3872V12.49H95.6272V14.84H89.4072ZM109.805 27H106.805C106.605 27 106.442 26.95 106.315 26.85C106.195 26.75 106.099 26.6333 106.025 26.5L102.885 21.16C102.852 21.2333 102.819 21.3067 102.785 21.38C102.759 21.4467 102.725 21.51 102.685 21.57L99.7053 26.5C99.6186 26.6267 99.5153 26.7433 99.3953 26.85C99.282 26.95 99.1353 27 98.9553 27H96.1553L100.905 19.53L96.3353 12.49H99.3353C99.5353 12.49 99.682 12.5167 99.7753 12.57C99.8686 12.6233 99.952 12.71 100.025 12.83L103.145 17.96C103.179 17.88 103.215 17.8 103.255 17.72C103.295 17.6333 103.342 17.5467 103.395 17.46L106.195 12.88C106.275 12.7467 106.362 12.65 106.455 12.59C106.555 12.5233 106.675 12.49 106.815 12.49H109.685L105.075 19.4L109.805 27Z" fill="#C1C4D0"/>
</g>
<defs>
<clipPath id="clip0_288_473">
<rect width="118" height="40" fill="white"/>
</clipPath>
<clipPath id="clip1_288_473">
<rect width="38" height="32" fill="white" transform="translate(4)"/>
</clipPath>
</defs>
</svg>
