<svg width="118" height="40" viewBox="0 0 118 40" fill="none" xmlns="http://www.w3.org/2000/svg">
<g clip-path="url(#clip0_288_612)">
<path d="M97.3544 10.1069C97.2916 10.1527 97.2445 10.9471 97.2445 11.8638V13.5138H96.3969C95.1097 13.5138 95.0469 13.5596 95.0469 14.5833C95.0469 15.6069 95.1097 15.6527 96.3969 15.6527H97.2445V20.2208C97.2445 24.9721 97.2916 25.3541 97.9195 26.0263C98.7358 26.8819 100.667 27.2333 101.875 26.7444C102.393 26.5305 102.425 26.4846 102.425 25.7513C102.425 25.3083 102.346 24.9416 102.236 24.8652C102.127 24.8041 101.671 24.743 101.216 24.743C99.8033 24.743 99.8347 24.8652 99.7876 19.9305L99.7405 15.6527H100.902C102.315 15.6527 102.456 15.5305 102.393 14.3999L102.346 13.5902L101.059 13.5444L99.7562 13.4985V11.8485C99.7562 10.4735 99.7091 10.168 99.505 10.0916C99.1754 9.96937 97.48 9.96937 97.3544 10.1069Z" fill="#C1C4D0"/>
<path d="M106.93 10.1069C106.867 10.1527 106.82 10.9471 106.82 11.8638V13.5138H105.972C104.685 13.5138 104.622 13.5596 104.622 14.5833C104.622 15.6069 104.685 15.6527 105.972 15.6527H106.82V20.2208C106.82 24.9721 106.867 25.3541 107.495 26.0263C108.311 26.8819 110.242 27.2333 111.451 26.7444C111.969 26.5305 112 26.4846 112 25.7513C112 25.3083 111.921 24.9416 111.812 24.8652C111.702 24.8041 111.246 24.743 110.791 24.743C109.378 24.743 109.41 24.8652 109.363 19.9305L109.316 15.6527H110.477C111.89 15.6527 112.031 15.5305 111.969 14.3999L111.921 13.5902L110.634 13.5444L109.331 13.4985V11.8485C109.331 10.4735 109.284 10.168 109.08 10.0916C108.751 9.96937 107.055 9.96937 106.93 10.1069Z" fill="#C1C4D0"/>
<path d="M35.3166 13.4069C34.3433 13.7277 33.7939 14.0486 33.2131 14.6444C32.9148 14.95 32.6166 15.1944 32.5538 15.1944C32.4753 15.1944 32.4125 14.8277 32.3811 14.3847L32.334 13.5902L31.298 13.5444C30.5602 13.5139 30.2148 13.5597 30.0735 13.7125C29.948 13.8805 29.9009 15.6222 29.9323 20.3277L29.9794 26.7291L31.1881 26.775C32.3497 26.8208 32.4125 26.8055 32.491 26.4694C32.5224 26.2708 32.5852 24.2236 32.6009 21.8861L32.648 17.6694L33.1189 17.0125C34.3119 15.3625 37.0119 15.0722 38.3305 16.4472C39.1625 17.3027 39.2253 17.7 39.2881 22.4208L39.3509 26.8208L40.5596 26.775L41.7526 26.7291L41.7997 22.2375C41.8468 16.6305 41.6898 15.8361 40.1985 14.4C39.1782 13.4222 36.7922 12.9333 35.3166 13.4069Z" fill="#C1C4D0"/>
<path d="M50.0731 13.422C46.7766 14.2164 44.8143 17.0275 45.0184 20.6637C45.0812 21.947 45.144 22.2067 45.7405 23.3678C46.4626 24.8039 47.326 25.6442 48.7388 26.347C51.3132 27.5998 55.0021 27.2637 56.8702 25.5831L57.4039 25.1248L57.0742 24.6206C56.5562 23.8109 56.4149 23.7956 55.2376 24.3762C54.2172 24.8803 54.1074 24.8956 52.4434 24.8956C50.9207 24.8956 50.6068 24.8498 49.9946 24.5289C48.7545 23.9025 47.8911 22.8484 47.5771 21.565L47.4829 21.1525H52.4748C58.0789 21.1525 58.0475 21.1678 58.2202 20.0831C58.3614 19.2275 58.0632 17.5623 57.6079 16.6303C56.2893 14.0025 53.1812 12.6734 50.0731 13.422ZM53.6678 15.79C54.5626 16.172 55.426 17.1498 55.7085 18.1123C55.8498 18.5553 55.9597 18.9678 55.9597 19.0442C55.9597 19.1053 54.0446 19.1664 51.7213 19.1664H47.4829L47.5771 18.7387C48.1109 16.5234 49.9004 15.24 52.1766 15.4387C52.6475 15.4692 53.3225 15.6373 53.6678 15.79Z" fill="#C1C4D0"/>
<path d="M65.5824 13.4222C64.5307 13.6819 63.1336 14.4916 62.4429 15.2708C60.1039 17.8833 60.0882 22.3902 62.3801 25.0027C64.6563 27.5847 69.3499 27.8139 71.5632 25.4305L72.1283 24.8194L72.1597 28.3027L72.2068 31.7708L73.3685 31.8166C74.2004 31.8472 74.5772 31.8014 74.6557 31.6639C74.7342 31.5569 74.797 27.5083 74.797 22.6652C74.797 15.2555 74.7656 13.8347 74.5772 13.6819C74.4359 13.575 73.9493 13.5139 73.3528 13.5444L72.3638 13.5902L72.2853 14.6444L72.2068 15.6833L71.6888 15.0569C70.433 13.5291 67.9528 12.8722 65.5824 13.4222ZM69.6638 15.9889C71.0766 16.5847 71.9871 17.9902 72.097 19.793C72.1911 21.3361 71.8615 22.4055 71.0295 23.3375C70.119 24.3458 69.1929 24.743 67.733 24.7277C65.1115 24.7277 63.3847 23.093 63.2121 20.4652C62.9923 16.9361 66.3202 14.6291 69.6638 15.9889Z" fill="#C1C4D0"/>
<path d="M82.849 13.4222C81.7973 13.6819 80.4002 14.4916 79.7095 15.2708C77.3705 17.8833 77.3548 22.3902 79.6467 25.0027C81.9699 27.6458 86.6636 27.8139 88.9083 25.3389L89.5362 24.6361L89.5833 25.6902L89.6304 26.7291L90.7136 26.775C91.4827 26.8055 91.8438 26.7597 91.9223 26.6222C92.0008 26.5152 92.0636 23.5972 92.0636 20.1444C92.0636 14.9194 92.0322 13.8194 91.8438 13.6819C91.7025 13.575 91.2159 13.5139 90.6194 13.5444L89.6304 13.5902L89.5519 14.6444L89.4734 15.6833L88.9554 15.0569C87.6996 13.5291 85.2194 12.8722 82.849 13.4222ZM86.9304 15.9889C88.3432 16.5847 89.2537 17.9902 89.3636 19.793C89.4577 21.3361 89.1281 22.4055 88.2961 23.3375C87.3856 24.3458 86.4595 24.743 84.9996 24.7277C82.3781 24.7277 80.6513 23.093 80.4787 20.4652C80.2589 16.9361 83.5868 14.6291 86.9304 15.9889Z" fill="#C1C4D0"/>
<path d="M4.40814 20.8622L4 21.1678V23.7345C4 26.1025 4.0314 26.3317 4.32965 26.7136L4.6436 27.1108H7.12384C9.4 27.1108 9.65116 27.0803 10.0279 26.79L10.436 26.4845V23.9178C10.436 21.5497 10.4047 21.3206 10.1064 20.9386L9.79244 20.5414H7.31221C5.03605 20.5414 4.78488 20.572 4.40814 20.8622Z" fill="#C1C4D0"/>
<path d="M12.7275 20.8622L12.3193 21.1678V23.7345C12.3193 26.1025 12.3507 26.3317 12.649 26.7136L12.9629 27.1108H15.4432C17.7193 27.1108 17.9705 27.0803 18.3472 26.79L18.7554 26.4845V23.9178C18.7554 21.5497 18.724 21.3206 18.4257 20.9386L18.1118 20.5414H15.6315C13.3554 20.5414 13.1042 20.572 12.7275 20.8622Z" fill="#C1C4D0"/>
<path d="M20.8906 20.8622L20.4824 21.1678V23.7345C20.4824 26.1025 20.5138 26.3317 20.8121 26.7136L21.126 27.1108H23.6847C26.0394 27.1108 26.2749 27.0803 26.6673 26.79L27.0754 26.4845V23.9178C27.0754 21.5497 27.044 21.3206 26.7458 20.9386L26.4318 20.5414H23.8731C21.5185 20.5414 21.283 20.572 20.8906 20.8622Z" fill="#C1C4D0"/>
</g>
<defs>
<clipPath id="clip0_288_612">
<rect width="108" height="22" fill="white" transform="translate(4 10)"/>
</clipPath>
</defs>
</svg>
